<svg width="22" height="22" viewBox="0 0 22 22" fill="none" xmlns="http://www.w3.org/2000/svg">
<path d="M11.2477 0.302734C5.36612 0.302734 0.598145 5.07071 0.598145 10.9523C0.598145 16.8339 5.36612 21.6019 11.2477 21.6019C17.1293 21.6019 21.8973 16.8339 21.8973 10.9523C21.8904 5.07355 17.1265 0.309581 11.2477 0.302734Z" fill="#5243C2" fill-opacity="0.103693"/>
<path d="M17.3952 7.57997L11.3205 15.8236C11.1756 16.0158 10.9596 16.1418 10.7209 16.1732C10.4823 16.2045 10.241 16.1387 10.0514 15.9905L5.71346 12.5223C5.33067 12.2159 5.26869 11.6573 5.57502 11.2745C5.88135 10.8917 6.44 10.8297 6.82279 11.136L10.4401 14.0301L15.9663 6.5301C16.1476 6.25817 16.4635 6.10783 16.7889 6.13876C17.1142 6.16969 17.3962 6.3769 17.5229 6.67811C17.6496 6.97931 17.6005 7.32579 17.3952 7.57997Z" fill="#AA253D"/>
</svg>
