<svg width="22" height="22" viewBox="0 0 22 22" fill="none" xmlns="http://www.w3.org/2000/svg">
<path d="M11.2477 0.34375C5.36612 0.34375 0.598145 5.11173 0.598145 10.9933C0.598145 16.8749 5.36612 21.6429 11.2477 21.6429C17.1293 21.6429 21.8973 16.8749 21.8973 10.9933C21.8904 5.11456 17.1265 0.350597 11.2477 0.34375Z" fill="#5243C2" fill-opacity="0.103693"/>
<path d="M17.3952 7.62099L11.3205 15.8646C11.1756 16.0569 10.9596 16.1828 10.7209 16.2142C10.4823 16.2456 10.241 16.1797 10.0514 16.0315L5.71346 12.5633C5.33067 12.2569 5.26869 11.6983 5.57502 11.3155C5.88135 10.9327 6.44 10.8707 6.82279 11.1771L10.4401 14.0711L15.9663 6.57112C16.1476 6.29919 16.4635 6.14885 16.7889 6.17978C17.1142 6.21071 17.3962 6.41791 17.5229 6.71912C17.6496 7.02033 17.6005 7.3668 17.3952 7.62099Z" fill="white"/>
</svg>
