<svg width="24" height="25" viewBox="0 0 24 25" fill="none" xmlns="http://www.w3.org/2000/svg">
<path d="M19 3.08105C19.5304 3.08105 20.0391 3.29177 20.4142 3.66684C20.7893 4.04191 21 4.55062 21 5.08105V19.0811C21 19.6115 20.7893 20.1202 20.4142 20.4953C20.0391 20.8703 19.5304 21.0811 19 21.0811H5C4.46957 21.0811 3.96086 20.8703 3.58579 20.4953C3.21071 20.1202 3 19.6115 3 19.0811V5.08105C3 4.55062 3.21071 4.04191 3.58579 3.66684C3.96086 3.29177 4.46957 3.08105 5 3.08105H19ZM18.5 18.5811V13.2811C18.5 12.4164 18.1565 11.5873 17.5452 10.9759C16.9338 10.3645 16.1046 10.0211 15.24 10.0211C14.39 10.0211 13.4 10.5411 12.92 11.3211V10.2111H10.13V18.5811H12.92V13.6511C12.92 12.8811 13.54 12.2511 14.31 12.2511C14.6813 12.2511 15.0374 12.3986 15.2999 12.6611C15.5625 12.9237 15.71 13.2798 15.71 13.6511V18.5811H18.5ZM6.88 8.64106C7.32556 8.64106 7.75288 8.46406 8.06794 8.14899C8.383 7.83393 8.56 7.40662 8.56 6.96105C8.56 6.03105 7.81 5.27105 6.88 5.27105C6.43178 5.27105 6.00193 5.44911 5.68499 5.76604C5.36805 6.08298 5.19 6.51284 5.19 6.96105C5.19 7.89105 5.95 8.64106 6.88 8.64106ZM8.27 18.5811V10.2111H5.5V18.5811H8.27Z" fill="black"/>
</svg>
