<svg width="37" height="36" viewBox="0 0 37 36" fill="none" xmlns="http://www.w3.org/2000/svg">
<path d="M12.635 17.4452H5.6C5.72 10.4402 7.1 9.2852 11.405 6.7352C11.9 6.4352 12.065 5.8052 11.765 5.2952C11.48 4.8002 10.835 4.6352 10.34 4.9352C5.27 7.9352 3.5 9.7652 3.5 18.4802V26.5652C3.5 29.1302 5.585 31.2002 8.135 31.2002H12.635C15.275 31.2002 17.27 29.2052 17.27 26.5652V22.0652C17.27 19.4402 15.275 17.4452 12.635 17.4452Z" fill="#344054"/>
<path d="M28.8651 17.4452H21.8301C21.9501 10.4402 23.3301 9.2852 27.6351 6.7352C28.1301 6.4352 28.2951 5.8052 27.9951 5.2952C27.6951 4.8002 27.0651 4.6352 26.5551 4.9352C21.4851 7.9352 19.7151 9.7652 19.7151 18.4952V26.5802C19.7151 29.1452 21.8001 31.2152 24.3501 31.2152H28.8501C31.4901 31.2152 33.4851 29.2202 33.4851 26.5802V22.0802C33.5001 19.4402 31.5051 17.4452 28.8651 17.4452Z" fill="#344054"/>
</svg>
