<svg width="328" height="86" viewBox="0 0 328 86" fill="none" xmlns="http://www.w3.org/2000/svg">
<path d="M27.477 66.8561C26.9014 69.4768 23.1294 74.1427 24.0234 82.5806M21.5966 62.3596C17.0116 65.1681 7.32167 72.3192 5.24139 78.4555M20.3189 55.6689C17.9893 55.1573 11.4892 55.0117 4.12494 58.5223" stroke="#B53F55" stroke-width="5" stroke-linecap="round" stroke-linejoin="round"/>
<path d="M299.999 18.5507C300.693 15.9589 304.674 11.4698 304.166 3M305.668 23.3106C310.376 20.714 320.382 14.0121 322.74 7.97701M306.639 30.0526C308.943 30.6699 315.43 31.1117 322.947 27.9404" stroke="#B53F55" stroke-width="5" stroke-linecap="round" stroke-linejoin="round"/>
<rect x="31.5" y="17.9072" width="259" height="44" rx="22" fill="white" stroke="black"/>
<path d="M61.14 47.4072L57.56 33.4072H59.29L62.11 44.4572L64.92 33.4072H66.43L69.25 44.4572L72.06 33.4072H73.79L70.23 47.4072H68.27L65.68 37.2672L63.09 47.4072H61.14ZM78.4914 47.6672C77.5714 47.6672 76.7314 47.4306 75.9714 46.9572C75.2181 46.4839 74.6147 45.8506 74.1614 45.0572C73.7147 44.2572 73.4914 43.3739 73.4914 42.4072C73.4914 41.6739 73.6214 40.9906 73.8814 40.3572C74.1414 39.7172 74.4981 39.1572 74.9514 38.6772C75.4114 38.1906 75.9447 37.8106 76.5514 37.5372C77.1581 37.2639 77.8047 37.1272 78.4914 37.1272C79.2447 37.1272 79.9347 37.2806 80.5614 37.5872C81.1947 37.8872 81.7347 38.3072 82.1814 38.8472C82.6347 39.3872 82.9714 40.0139 83.1914 40.7272C83.4181 41.4406 83.5014 42.2039 83.4414 43.0172H75.2814C75.3614 43.5839 75.5481 44.0906 75.8414 44.5372C76.1347 44.9772 76.5081 45.3272 76.9614 45.5872C77.4214 45.8472 77.9314 45.9806 78.4914 45.9872C79.0914 45.9872 79.6347 45.8339 80.1214 45.5272C80.6081 45.2139 81.0014 44.7872 81.3014 44.2472L83.0114 44.6472C82.6114 45.5339 82.0081 46.2606 81.2014 46.8272C80.3947 47.3872 79.4914 47.6672 78.4914 47.6672ZM75.2314 41.6972H81.7514C81.6981 41.1372 81.5181 40.6272 81.2114 40.1672C80.9047 39.7006 80.5147 39.3272 80.0414 39.0472C79.5681 38.7672 79.0514 38.6272 78.4914 38.6272C77.9314 38.6272 77.4181 38.7639 76.9514 39.0372C76.4847 39.3106 76.0981 39.6806 75.7914 40.1472C75.4914 40.6072 75.3047 41.1239 75.2314 41.6972ZM84.7289 47.4072V32.4072H86.4089V47.4072H84.7289ZM95.3033 44.7672L96.8033 45.5772C96.3499 46.2106 95.7733 46.7172 95.0733 47.0972C94.3799 47.4772 93.6266 47.6672 92.8133 47.6672C91.8933 47.6672 91.0533 47.4306 90.2933 46.9572C89.5399 46.4839 88.9366 45.8506 88.4833 45.0572C88.0366 44.2572 87.8133 43.3739 87.8133 42.4072C87.8133 41.6739 87.9433 40.9906 88.2033 40.3572C88.4633 39.7172 88.8199 39.1572 89.2733 38.6772C89.7333 38.1906 90.2666 37.8106 90.8733 37.5372C91.4799 37.2639 92.1266 37.1272 92.8133 37.1272C93.6266 37.1272 94.3799 37.3172 95.0733 37.6972C95.7733 38.0772 96.3499 38.5872 96.8033 39.2272L95.3033 40.0372C94.9833 39.6439 94.6033 39.3406 94.1633 39.1272C93.7233 38.9139 93.2733 38.8072 92.8133 38.8072C92.1933 38.8072 91.6299 38.9739 91.1233 39.3072C90.6233 39.6339 90.2266 40.0706 89.9333 40.6172C89.6399 41.1639 89.4933 41.7606 89.4933 42.4072C89.4933 43.0539 89.6399 43.6506 89.9333 44.1972C90.2333 44.7372 90.6333 45.1706 91.1333 45.4972C91.6399 45.8239 92.1999 45.9872 92.8133 45.9872C93.3066 45.9872 93.7699 45.8739 94.2033 45.6472C94.6366 45.4206 95.0033 45.1272 95.3033 44.7672ZM102.533 47.6672C101.613 47.6672 100.773 47.4306 100.013 46.9572C99.2595 46.4839 98.6561 45.8506 98.2028 45.0572C97.7561 44.2572 97.5328 43.3739 97.5328 42.4072C97.5328 41.6739 97.6628 40.9906 97.9228 40.3572C98.1828 39.7172 98.5395 39.1572 98.9928 38.6772C99.4528 38.1906 99.9861 37.8106 100.593 37.5372C101.199 37.2639 101.846 37.1272 102.533 37.1272C103.453 37.1272 104.289 37.3639 105.043 37.8372C105.803 38.3106 106.406 38.9472 106.853 39.7472C107.306 40.5472 107.533 41.4339 107.533 42.4072C107.533 43.1339 107.403 43.8139 107.143 44.4472C106.883 45.0806 106.523 45.6406 106.063 46.1272C105.609 46.6072 105.079 46.9839 104.473 47.2572C103.873 47.5306 103.226 47.6672 102.533 47.6672ZM102.533 45.9872C103.159 45.9872 103.723 45.8239 104.223 45.4972C104.729 45.1639 105.126 44.7272 105.413 44.1872C105.706 43.6406 105.853 43.0472 105.853 42.4072C105.853 41.7539 105.703 41.1539 105.403 40.6072C105.109 40.0606 104.713 39.6239 104.213 39.2972C103.713 38.9706 103.153 38.8072 102.533 38.8072C101.906 38.8072 101.343 38.9739 100.843 39.3072C100.343 39.6339 99.9461 40.0706 99.6528 40.6172C99.3595 41.1639 99.2128 41.7606 99.2128 42.4072C99.2128 43.0739 99.3628 43.6806 99.6628 44.2272C99.9628 44.7672 100.366 45.1972 100.873 45.5172C101.379 45.8306 101.933 45.9872 102.533 45.9872ZM108.888 47.4072V37.4072H110.568V38.6572C110.921 38.1906 111.364 37.8206 111.898 37.5472C112.438 37.2672 113.024 37.1272 113.658 37.1272C114.398 37.1272 115.074 37.3072 115.688 37.6672C116.301 38.0272 116.784 38.5039 117.138 39.0972C117.491 38.5039 117.971 38.0272 118.578 37.6672C119.191 37.3072 119.864 37.1272 120.598 37.1272C121.351 37.1272 122.034 37.3106 122.648 37.6772C123.261 38.0372 123.748 38.5239 124.108 39.1372C124.474 39.7506 124.658 40.4339 124.658 41.1872V47.4072H122.978V41.5872C122.978 41.0939 122.858 40.6372 122.618 40.2172C122.378 39.7972 122.054 39.4606 121.648 39.2072C121.241 38.9539 120.791 38.8272 120.298 38.8272C119.804 38.8272 119.354 38.9472 118.948 39.1872C118.541 39.4206 118.218 39.7472 117.978 40.1672C117.738 40.5806 117.618 41.0539 117.618 41.5872V47.4072H115.938V41.5872C115.938 41.0539 115.818 40.5806 115.578 40.1672C115.338 39.7472 115.011 39.4206 114.598 39.1872C114.191 38.9472 113.741 38.8272 113.248 38.8272C112.761 38.8272 112.311 38.9539 111.898 39.2072C111.491 39.4606 111.168 39.7972 110.928 40.2172C110.688 40.6372 110.568 41.0939 110.568 41.5872V47.4072H108.888ZM130.566 47.6672C129.646 47.6672 128.806 47.4306 128.046 46.9572C127.292 46.4839 126.689 45.8506 126.236 45.0572C125.789 44.2572 125.566 43.3739 125.566 42.4072C125.566 41.6739 125.696 40.9906 125.956 40.3572C126.216 39.7172 126.572 39.1572 127.026 38.6772C127.486 38.1906 128.019 37.8106 128.626 37.5372C129.232 37.2639 129.879 37.1272 130.566 37.1272C131.319 37.1272 132.009 37.2806 132.636 37.5872C133.269 37.8872 133.809 38.3072 134.256 38.8472C134.709 39.3872 135.046 40.0139 135.266 40.7272C135.492 41.4406 135.576 42.2039 135.516 43.0172H127.356C127.436 43.5839 127.622 44.0906 127.916 44.5372C128.209 44.9772 128.582 45.3272 129.036 45.5872C129.496 45.8472 130.006 45.9806 130.566 45.9872C131.166 45.9872 131.709 45.8339 132.196 45.5272C132.682 45.2139 133.076 44.7872 133.376 44.2472L135.086 44.6472C134.686 45.5339 134.082 46.2606 133.276 46.8272C132.469 47.3872 131.566 47.6672 130.566 47.6672ZM127.306 41.6972H133.826C133.772 41.1372 133.592 40.6272 133.286 40.1672C132.979 39.7006 132.589 39.3272 132.116 39.0472C131.642 38.7672 131.126 38.6272 130.566 38.6272C130.006 38.6272 129.492 38.7639 129.026 39.0372C128.559 39.3106 128.172 39.6806 127.866 40.1472C127.566 40.6072 127.379 41.1239 127.306 41.6972ZM146.722 39.0872H144.452L144.442 47.4072H142.762L142.772 39.0872H141.052V37.4072H142.772L142.762 34.2672H144.442L144.452 37.4072H146.722V39.0872ZM152.361 47.6672C151.441 47.6672 150.601 47.4306 149.841 46.9572C149.088 46.4839 148.484 45.8506 148.031 45.0572C147.584 44.2572 147.361 43.3739 147.361 42.4072C147.361 41.6739 147.491 40.9906 147.751 40.3572C148.011 39.7172 148.368 39.1572 148.821 38.6772C149.281 38.1906 149.814 37.8106 150.421 37.5372C151.028 37.2639 151.674 37.1272 152.361 37.1272C153.281 37.1272 154.118 37.3639 154.871 37.8372C155.631 38.3106 156.234 38.9472 156.681 39.7472C157.134 40.5472 157.361 41.4339 157.361 42.4072C157.361 43.1339 157.231 43.8139 156.971 44.4472C156.711 45.0806 156.351 45.6406 155.891 46.1272C155.438 46.6072 154.908 46.9839 154.301 47.2572C153.701 47.5306 153.054 47.6672 152.361 47.6672ZM152.361 45.9872C152.988 45.9872 153.551 45.8239 154.051 45.4972C154.558 45.1639 154.954 44.7272 155.241 44.1872C155.534 43.6406 155.681 43.0472 155.681 42.4072C155.681 41.7539 155.531 41.1539 155.231 40.6072C154.938 40.0606 154.541 39.6239 154.041 39.2972C153.541 38.9706 152.981 38.8072 152.361 38.8072C151.734 38.8072 151.171 38.9739 150.671 39.3072C150.171 39.6339 149.774 40.0706 149.481 40.6172C149.188 41.1639 149.041 41.7606 149.041 42.4072C149.041 43.0739 149.191 43.6806 149.491 44.2272C149.791 44.7672 150.194 45.1972 150.701 45.5172C151.208 45.8306 151.761 45.9872 152.361 45.9872ZM167.757 47.6672C166.837 47.6672 165.997 47.4306 165.237 46.9572C164.484 46.4839 163.88 45.8506 163.427 45.0572C162.98 44.2572 162.757 43.3739 162.757 42.4072C162.757 41.6739 162.887 40.9906 163.147 40.3572C163.407 39.7172 163.764 39.1572 164.217 38.6772C164.677 38.1906 165.21 37.8106 165.817 37.5372C166.424 37.2639 167.07 37.1272 167.757 37.1272C168.677 37.1272 169.514 37.3639 170.267 37.8372C171.027 38.3106 171.63 38.9472 172.077 39.7472C172.53 40.5472 172.757 41.4339 172.757 42.4072C172.757 43.1339 172.627 43.8139 172.367 44.4472C172.107 45.0806 171.747 45.6406 171.287 46.1272C170.834 46.6072 170.304 46.9839 169.697 47.2572C169.097 47.5306 168.45 47.6672 167.757 47.6672ZM167.757 45.9872C168.384 45.9872 168.947 45.8239 169.447 45.4972C169.954 45.1639 170.35 44.7272 170.637 44.1872C170.93 43.6406 171.077 43.0472 171.077 42.4072C171.077 41.7539 170.927 41.1539 170.627 40.6072C170.334 40.0606 169.937 39.6239 169.437 39.2972C168.937 38.9706 168.377 38.8072 167.757 38.8072C167.13 38.8072 166.567 38.9739 166.067 39.3072C165.567 39.6339 165.17 40.0706 164.877 40.6172C164.584 41.1639 164.437 41.7606 164.437 42.4072C164.437 43.0739 164.587 43.6806 164.887 44.2272C165.187 44.7672 165.59 45.1972 166.097 45.5172C166.604 45.8306 167.157 45.9872 167.757 45.9872ZM173.575 43.6072V37.4072H175.255V43.2372C175.255 43.7439 175.378 44.2039 175.625 44.6172C175.872 45.0306 176.202 45.3606 176.615 45.6072C177.035 45.8472 177.495 45.9672 177.995 45.9672C178.502 45.9672 178.958 45.8472 179.365 45.6072C179.778 45.3606 180.108 45.0306 180.355 44.6172C180.602 44.2039 180.725 43.7439 180.725 43.2372V37.4072H182.405L182.415 47.4072H180.735L180.725 46.1372C180.372 46.6039 179.925 46.9772 179.385 47.2572C178.845 47.5306 178.262 47.6672 177.635 47.6672C176.888 47.6672 176.205 47.4872 175.585 47.1272C174.972 46.7606 174.482 46.2706 174.115 45.6572C173.755 45.0439 173.575 44.3606 173.575 43.6072ZM184.124 47.4072V37.4072H185.804V38.6572C186.158 38.1906 186.604 37.8206 187.144 37.5472C187.684 37.2672 188.271 37.1272 188.904 37.1272C189.291 37.1272 189.664 37.1772 190.024 37.2772L189.344 38.9572C189.071 38.8706 188.804 38.8272 188.544 38.8272C188.044 38.8272 187.584 38.9506 187.164 39.1972C186.751 39.4372 186.421 39.7639 186.174 40.1772C185.928 40.5906 185.804 41.0506 185.804 41.5572V47.4072H184.124ZM200.084 47.4072H198.384L195.034 37.4072H196.674L199.254 45.0372L201.804 37.4072H203.534L206.094 45.0372L208.644 37.4072H210.304L206.954 47.4072H205.244L202.654 39.7072L200.084 47.4072ZM215.632 47.6672C214.712 47.6672 213.872 47.4306 213.112 46.9572C212.359 46.4839 211.755 45.8506 211.302 45.0572C210.855 44.2572 210.632 43.3739 210.632 42.4072C210.632 41.6739 210.762 40.9906 211.022 40.3572C211.282 39.7172 211.639 39.1572 212.092 38.6772C212.552 38.1906 213.085 37.8106 213.692 37.5372C214.299 37.2639 214.945 37.1272 215.632 37.1272C216.385 37.1272 217.075 37.2806 217.702 37.5872C218.335 37.8872 218.875 38.3072 219.322 38.8472C219.775 39.3872 220.112 40.0139 220.332 40.7272C220.559 41.4406 220.642 42.2039 220.582 43.0172H212.422C212.502 43.5839 212.689 44.0906 212.982 44.5372C213.275 44.9772 213.649 45.3272 214.102 45.5872C214.562 45.8472 215.072 45.9806 215.632 45.9872C216.232 45.9872 216.775 45.8339 217.262 45.5272C217.749 45.2139 218.142 44.7872 218.442 44.2472L220.152 44.6472C219.752 45.5339 219.149 46.2606 218.342 46.8272C217.535 47.3872 216.632 47.6672 215.632 47.6672ZM212.372 41.6972H218.892C218.839 41.1372 218.659 40.6272 218.352 40.1672C218.045 39.7006 217.655 39.3272 217.182 39.0472C216.709 38.7672 216.192 38.6272 215.632 38.6272C215.072 38.6272 214.559 38.7639 214.092 39.0372C213.625 39.3106 213.239 39.6806 212.932 40.1472C212.632 40.6072 212.445 41.1239 212.372 41.6972ZM226.93 37.1272C227.903 37.1272 228.786 37.3639 229.58 37.8372C230.38 38.3106 231.016 38.9472 231.49 39.7472C231.963 40.5406 232.2 41.4239 232.2 42.3972C232.2 43.1239 232.063 43.8072 231.79 44.4472C231.516 45.0806 231.136 45.6406 230.65 46.1272C230.17 46.6072 229.61 46.9839 228.97 47.2572C228.336 47.5306 227.656 47.6672 226.93 47.6672C226.156 47.6672 225.483 47.4872 224.91 47.1272C224.343 46.7606 223.89 46.2839 223.55 45.6972V47.4072H221.87V32.4072H223.55V39.0972C223.89 38.5106 224.343 38.0372 224.91 37.6772C225.483 37.3106 226.156 37.1272 226.93 37.1272ZM226.91 46.0272C227.57 46.0272 228.17 45.8639 228.71 45.5372C229.25 45.2106 229.68 44.7739 230 44.2272C230.32 43.6739 230.48 43.0639 230.48 42.3972C230.48 41.7172 230.316 41.1039 229.99 40.5572C229.663 40.0039 229.23 39.5672 228.69 39.2472C228.15 38.9206 227.556 38.7572 226.91 38.7572C226.256 38.7572 225.686 38.9206 225.2 39.2472C224.72 39.5739 224.346 40.0139 224.08 40.5672C223.82 41.1206 223.69 41.7306 223.69 42.3972C223.69 43.0706 223.82 43.6839 224.08 44.2372C224.346 44.7839 224.723 45.2206 225.21 45.5472C225.696 45.8672 226.263 46.0272 226.91 46.0272ZM236.651 47.5972C236.111 47.5772 235.584 47.4772 235.071 47.2972C234.564 47.1106 234.117 46.8606 233.731 46.5472C233.351 46.2272 233.074 45.8606 232.901 45.4472L234.341 44.8272C234.441 45.0539 234.621 45.2672 234.881 45.4672C235.141 45.6672 235.441 45.8272 235.781 45.9472C236.121 46.0672 236.464 46.1272 236.811 46.1272C237.177 46.1272 237.521 46.0706 237.841 45.9572C238.161 45.8439 238.421 45.6772 238.621 45.4572C238.827 45.2306 238.931 44.9606 238.931 44.6472C238.931 44.3139 238.817 44.0539 238.591 43.8672C238.371 43.6739 238.091 43.5239 237.751 43.4172C237.417 43.3039 237.077 43.1972 236.731 43.0972C236.044 42.9239 235.431 42.7172 234.891 42.4772C234.351 42.2306 233.924 41.9206 233.611 41.5472C233.304 41.1672 233.151 40.6839 233.151 40.0972C233.151 39.4772 233.321 38.9406 233.661 38.4872C234.007 38.0339 234.461 37.6839 235.021 37.4372C235.581 37.1906 236.181 37.0672 236.821 37.0672C237.627 37.0672 238.364 37.2406 239.031 37.5872C239.697 37.9339 240.194 38.4039 240.521 38.9972L239.171 39.7872C239.057 39.5472 238.884 39.3372 238.651 39.1572C238.417 38.9706 238.151 38.8239 237.851 38.7172C237.551 38.6106 237.244 38.5539 236.931 38.5472C236.544 38.5339 236.181 38.5839 235.841 38.6972C235.507 38.8106 235.237 38.9839 235.031 39.2172C234.831 39.4439 234.731 39.7272 234.731 40.0672C234.731 40.4006 234.837 40.6539 235.051 40.8272C235.271 41.0006 235.554 41.1406 235.901 41.2472C236.254 41.3472 236.637 41.4639 237.051 41.5972C237.657 41.7906 238.224 42.0139 238.751 42.2672C239.277 42.5206 239.701 42.8372 240.021 43.2172C240.347 43.5972 240.507 44.0672 240.501 44.6272C240.501 45.2406 240.317 45.7772 239.951 46.2372C239.584 46.6906 239.107 47.0372 238.521 47.2772C237.941 47.5172 237.317 47.6239 236.651 47.5972ZM241.777 37.4072H243.457V47.4072H241.777V37.4072ZM242.637 35.7772C242.371 35.7772 242.147 35.6906 241.967 35.5172C241.787 35.3439 241.697 35.1272 241.697 34.8672C241.697 34.6072 241.787 34.3906 241.967 34.2172C242.147 34.0439 242.367 33.9572 242.627 33.9572C242.887 33.9572 243.107 34.0439 243.287 34.2172C243.467 34.3906 243.557 34.6072 243.557 34.8672C243.557 35.1272 243.467 35.3439 243.287 35.5172C243.114 35.6906 242.897 35.7772 242.637 35.7772ZM250.739 39.0872H248.469L248.459 47.4072H246.779L246.789 39.0872H245.069V37.4072H246.789L246.779 34.2672H248.459L248.469 37.4072H250.739V39.0872ZM256.378 47.6672C255.458 47.6672 254.618 47.4306 253.858 46.9572C253.105 46.4839 252.501 45.8506 252.048 45.0572C251.601 44.2572 251.378 43.3739 251.378 42.4072C251.378 41.6739 251.508 40.9906 251.768 40.3572C252.028 39.7172 252.385 39.1572 252.838 38.6772C253.298 38.1906 253.831 37.8106 254.438 37.5372C255.045 37.2639 255.691 37.1272 256.378 37.1272C257.131 37.1272 257.821 37.2806 258.448 37.5872C259.081 37.8872 259.621 38.3072 260.068 38.8472C260.521 39.3872 260.858 40.0139 261.078 40.7272C261.305 41.4406 261.388 42.2039 261.328 43.0172H253.168C253.248 43.5839 253.435 44.0906 253.728 44.5372C254.021 44.9772 254.395 45.3272 254.848 45.5872C255.308 45.8472 255.818 45.9806 256.378 45.9872C256.978 45.9872 257.521 45.8339 258.008 45.5272C258.495 45.2139 258.888 44.7872 259.188 44.2472L260.898 44.6472C260.498 45.5339 259.895 46.2606 259.088 46.8272C258.281 47.3872 257.378 47.6672 256.378 47.6672ZM253.118 41.6972H259.638C259.585 41.1372 259.405 40.6272 259.098 40.1672C258.791 39.7006 258.401 39.3272 257.928 39.0472C257.455 38.7672 256.938 38.6272 256.378 38.6272C255.818 38.6272 255.305 38.7639 254.838 39.0372C254.371 39.3106 253.985 39.6806 253.678 40.1472C253.378 40.6072 253.191 41.1239 253.118 41.6972ZM262.65 43.2072V33.4072H264.1V43.2072H262.65ZM263.38 47.6672C263.12 47.6672 262.9 47.5772 262.72 47.3972C262.54 47.2172 262.45 46.9972 262.45 46.7372C262.45 46.4839 262.54 46.2706 262.72 46.0972C262.9 45.9172 263.12 45.8272 263.38 45.8272C263.627 45.8272 263.837 45.9172 264.01 46.0972C264.19 46.2706 264.28 46.4839 264.28 46.7372C264.28 46.9972 264.19 47.2172 264.01 47.3972C263.837 47.5772 263.627 47.6672 263.38 47.6672Z" fill="#171717"/>
</svg>
