<svg width="290" height="65" viewBox="0 0 290 65" fill="none" xmlns="http://www.w3.org/2000/svg">
<rect x="1.14214" y="20.6373" width="258.706" height="43.7255" rx="21.8627" fill="white" fill-opacity="0.1"/>
<rect x="1.14214" y="20.6373" width="258.706" height="43.7255" rx="21.8627" stroke="#171717" stroke-width="1.27451"/>
<path d="M30.1351 49.5L26.5551 35.5H28.2851L31.1051 46.55L33.9151 35.5H35.4251L38.2451 46.55L41.0551 35.5H42.7851L39.2251 49.5H37.2651L34.6751 39.36L32.0851 49.5H30.1351ZM47.4865 49.76C46.5665 49.76 45.7265 49.5233 44.9665 49.05C44.2132 48.5767 43.6099 47.9433 43.1565 47.15C42.7099 46.35 42.4865 45.4667 42.4865 44.5C42.4865 43.7667 42.6165 43.0833 42.8765 42.45C43.1365 41.81 43.4932 41.25 43.9465 40.77C44.4065 40.2833 44.9399 39.9033 45.5465 39.63C46.1532 39.3567 46.7999 39.22 47.4865 39.22C48.2399 39.22 48.9299 39.3733 49.5565 39.68C50.1899 39.98 50.7299 40.4 51.1765 40.94C51.6299 41.48 51.9665 42.1067 52.1865 42.82C52.4132 43.5333 52.4965 44.2967 52.4365 45.11H44.2765C44.3565 45.6767 44.5432 46.1833 44.8365 46.63C45.1299 47.07 45.5032 47.42 45.9565 47.68C46.4165 47.94 46.9265 48.0733 47.4865 48.08C48.0865 48.08 48.6299 47.9267 49.1165 47.62C49.6032 47.3067 49.9965 46.88 50.2965 46.34L52.0065 46.74C51.6065 47.6267 51.0032 48.3533 50.1965 48.92C49.3899 49.48 48.4865 49.76 47.4865 49.76ZM44.2265 43.79H50.7465C50.6932 43.23 50.5132 42.72 50.2065 42.26C49.8999 41.7933 49.5099 41.42 49.0365 41.14C48.5632 40.86 48.0465 40.72 47.4865 40.72C46.9265 40.72 46.4132 40.8567 45.9465 41.13C45.4799 41.4033 45.0932 41.7733 44.7865 42.24C44.4865 42.7 44.2999 43.2167 44.2265 43.79ZM53.724 49.5V34.5H55.404V49.5H53.724ZM64.2984 46.86L65.7984 47.67C65.3451 48.3033 64.7684 48.81 64.0684 49.19C63.3751 49.57 62.6217 49.76 61.8084 49.76C60.8884 49.76 60.0484 49.5233 59.2884 49.05C58.5351 48.5767 57.9317 47.9433 57.4784 47.15C57.0317 46.35 56.8084 45.4667 56.8084 44.5C56.8084 43.7667 56.9384 43.0833 57.1984 42.45C57.4584 41.81 57.8151 41.25 58.2684 40.77C58.7284 40.2833 59.2617 39.9033 59.8684 39.63C60.4751 39.3567 61.1217 39.22 61.8084 39.22C62.6217 39.22 63.3751 39.41 64.0684 39.79C64.7684 40.17 65.3451 40.68 65.7984 41.32L64.2984 42.13C63.9784 41.7367 63.5984 41.4333 63.1584 41.22C62.7184 41.0067 62.2684 40.9 61.8084 40.9C61.1884 40.9 60.6251 41.0667 60.1184 41.4C59.6184 41.7267 59.2217 42.1633 58.9284 42.71C58.6351 43.2567 58.4884 43.8533 58.4884 44.5C58.4884 45.1467 58.6351 45.7433 58.9284 46.29C59.2284 46.83 59.6284 47.2633 60.1284 47.59C60.6351 47.9167 61.1951 48.08 61.8084 48.08C62.3017 48.08 62.7651 47.9667 63.1984 47.74C63.6317 47.5133 63.9984 47.22 64.2984 46.86ZM71.5279 49.76C70.6079 49.76 69.7679 49.5233 69.0079 49.05C68.2546 48.5767 67.6513 47.9433 67.1979 47.15C66.7513 46.35 66.5279 45.4667 66.5279 44.5C66.5279 43.7667 66.6579 43.0833 66.9179 42.45C67.1779 41.81 67.5346 41.25 67.9879 40.77C68.4479 40.2833 68.9813 39.9033 69.5879 39.63C70.1946 39.3567 70.8413 39.22 71.5279 39.22C72.4479 39.22 73.2846 39.4567 74.0379 39.93C74.7979 40.4033 75.4013 41.04 75.8479 41.84C76.3013 42.64 76.5279 43.5267 76.5279 44.5C76.5279 45.2267 76.3979 45.9067 76.1379 46.54C75.8779 47.1733 75.5179 47.7333 75.0579 48.22C74.6046 48.7 74.0746 49.0767 73.4679 49.35C72.8679 49.6233 72.2213 49.76 71.5279 49.76ZM71.5279 48.08C72.1546 48.08 72.7179 47.9167 73.2179 47.59C73.7246 47.2567 74.1213 46.82 74.4079 46.28C74.7013 45.7333 74.8479 45.14 74.8479 44.5C74.8479 43.8467 74.6979 43.2467 74.3979 42.7C74.1046 42.1533 73.7079 41.7167 73.2079 41.39C72.7079 41.0633 72.1479 40.9 71.5279 40.9C70.9013 40.9 70.3379 41.0667 69.8379 41.4C69.3379 41.7267 68.9413 42.1633 68.6479 42.71C68.3546 43.2567 68.2079 43.8533 68.2079 44.5C68.2079 45.1667 68.3579 45.7733 68.6579 46.32C68.9579 46.86 69.3613 47.29 69.8679 47.61C70.3746 47.9233 70.9279 48.08 71.5279 48.08ZM77.8826 49.5V39.5H79.5626V40.75C79.916 40.2833 80.3593 39.9133 80.8926 39.64C81.4326 39.36 82.0193 39.22 82.6526 39.22C83.3926 39.22 84.0693 39.4 84.6826 39.76C85.296 40.12 85.7793 40.5967 86.1326 41.19C86.486 40.5967 86.966 40.12 87.5726 39.76C88.186 39.4 88.8593 39.22 89.5926 39.22C90.346 39.22 91.0293 39.4033 91.6426 39.77C92.256 40.13 92.7426 40.6167 93.1026 41.23C93.4693 41.8433 93.6526 42.5267 93.6526 43.28V49.5H91.9726V43.68C91.9726 43.1867 91.8526 42.73 91.6126 42.31C91.3726 41.89 91.0493 41.5533 90.6426 41.3C90.236 41.0467 89.786 40.92 89.2926 40.92C88.7993 40.92 88.3493 41.04 87.9426 41.28C87.536 41.5133 87.2126 41.84 86.9726 42.26C86.7326 42.6733 86.6126 43.1467 86.6126 43.68V49.5H84.9326V43.68C84.9326 43.1467 84.8126 42.6733 84.5726 42.26C84.3326 41.84 84.006 41.5133 83.5926 41.28C83.186 41.04 82.736 40.92 82.2426 40.92C81.756 40.92 81.306 41.0467 80.8926 41.3C80.486 41.5533 80.1626 41.89 79.9226 42.31C79.6826 42.73 79.5626 43.1867 79.5626 43.68V49.5H77.8826ZM99.5607 49.76C98.6407 49.76 97.8007 49.5233 97.0407 49.05C96.2874 48.5767 95.6841 47.9433 95.2307 47.15C94.7841 46.35 94.5607 45.4667 94.5607 44.5C94.5607 43.7667 94.6907 43.0833 94.9507 42.45C95.2107 41.81 95.5674 41.25 96.0207 40.77C96.4807 40.2833 97.0141 39.9033 97.6207 39.63C98.2274 39.3567 98.8741 39.22 99.5607 39.22C100.314 39.22 101.004 39.3733 101.631 39.68C102.264 39.98 102.804 40.4 103.251 40.94C103.704 41.48 104.041 42.1067 104.261 42.82C104.487 43.5333 104.571 44.2967 104.511 45.11H96.3507C96.4307 45.6767 96.6174 46.1833 96.9107 46.63C97.2041 47.07 97.5774 47.42 98.0307 47.68C98.4907 47.94 99.0007 48.0733 99.5607 48.08C100.161 48.08 100.704 47.9267 101.191 47.62C101.677 47.3067 102.071 46.88 102.371 46.34L104.081 46.74C103.681 47.6267 103.077 48.3533 102.271 48.92C101.464 49.48 100.561 49.76 99.5607 49.76ZM96.3007 43.79H102.821C102.767 43.23 102.587 42.72 102.281 42.26C101.974 41.7933 101.584 41.42 101.111 41.14C100.637 40.86 100.121 40.72 99.5607 40.72C99.0007 40.72 98.4874 40.8567 98.0207 41.13C97.5541 41.4033 97.1674 41.7733 96.8607 42.24C96.5607 42.7 96.3741 43.2167 96.3007 43.79ZM115.717 41.18H113.447L113.437 49.5H111.757L111.767 41.18H110.047V39.5H111.767L111.757 36.36H113.437L113.447 39.5H115.717V41.18ZM121.356 49.76C120.436 49.76 119.596 49.5233 118.836 49.05C118.083 48.5767 117.479 47.9433 117.026 47.15C116.579 46.35 116.356 45.4667 116.356 44.5C116.356 43.7667 116.486 43.0833 116.746 42.45C117.006 41.81 117.363 41.25 117.816 40.77C118.276 40.2833 118.809 39.9033 119.416 39.63C120.023 39.3567 120.669 39.22 121.356 39.22C122.276 39.22 123.113 39.4567 123.866 39.93C124.626 40.4033 125.229 41.04 125.676 41.84C126.129 42.64 126.356 43.5267 126.356 44.5C126.356 45.2267 126.226 45.9067 125.966 46.54C125.706 47.1733 125.346 47.7333 124.886 48.22C124.433 48.7 123.903 49.0767 123.296 49.35C122.696 49.6233 122.049 49.76 121.356 49.76ZM121.356 48.08C121.983 48.08 122.546 47.9167 123.046 47.59C123.553 47.2567 123.949 46.82 124.236 46.28C124.529 45.7333 124.676 45.14 124.676 44.5C124.676 43.8467 124.526 43.2467 124.226 42.7C123.933 42.1533 123.536 41.7167 123.036 41.39C122.536 41.0633 121.976 40.9 121.356 40.9C120.729 40.9 120.166 41.0667 119.666 41.4C119.166 41.7267 118.769 42.1633 118.476 42.71C118.183 43.2567 118.036 43.8533 118.036 44.5C118.036 45.1667 118.186 45.7733 118.486 46.32C118.786 46.86 119.189 47.29 119.696 47.61C120.203 47.9233 120.756 48.08 121.356 48.08ZM132.352 49.5V39.5H134.032V40.75C134.385 40.2833 134.829 39.9133 135.362 39.64C135.902 39.36 136.489 39.22 137.122 39.22C137.862 39.22 138.539 39.4 139.152 39.76C139.765 40.12 140.249 40.5967 140.602 41.19C140.955 40.5967 141.435 40.12 142.042 39.76C142.655 39.4 143.329 39.22 144.062 39.22C144.815 39.22 145.499 39.4033 146.112 39.77C146.725 40.13 147.212 40.6167 147.572 41.23C147.939 41.8433 148.122 42.5267 148.122 43.28V49.5H146.442V43.68C146.442 43.1867 146.322 42.73 146.082 42.31C145.842 41.89 145.519 41.5533 145.112 41.3C144.705 41.0467 144.255 40.92 143.762 40.92C143.269 40.92 142.819 41.04 142.412 41.28C142.005 41.5133 141.682 41.84 141.442 42.26C141.202 42.6733 141.082 43.1467 141.082 43.68V49.5H139.402V43.68C139.402 43.1467 139.282 42.6733 139.042 42.26C138.802 41.84 138.475 41.5133 138.062 41.28C137.655 41.04 137.205 40.92 136.712 40.92C136.225 40.92 135.775 41.0467 135.362 41.3C134.955 41.5533 134.632 41.89 134.392 42.31C134.152 42.73 134.032 43.1867 134.032 43.68V49.5H132.352ZM156.363 39.5H158.143L152.673 54.5H150.893L152.703 49.5L149.113 39.5H150.953L153.543 47.19L156.363 39.5ZM168.793 49.5H167.093L163.743 39.5H165.383L167.963 47.13L170.513 39.5H172.243L174.803 47.13L177.353 39.5H179.013L175.663 49.5H173.953L171.363 41.8L168.793 49.5ZM184.341 49.76C183.421 49.76 182.581 49.5233 181.821 49.05C181.068 48.5767 180.465 47.9433 180.011 47.15C179.565 46.35 179.341 45.4667 179.341 44.5C179.341 43.7667 179.471 43.0833 179.731 42.45C179.991 41.81 180.348 41.25 180.801 40.77C181.261 40.2833 181.795 39.9033 182.401 39.63C183.008 39.3567 183.655 39.22 184.341 39.22C185.095 39.22 185.785 39.3733 186.411 39.68C187.045 39.98 187.585 40.4 188.031 40.94C188.485 41.48 188.821 42.1067 189.041 42.82C189.268 43.5333 189.351 44.2967 189.291 45.11H181.131C181.211 45.6767 181.398 46.1833 181.691 46.63C181.985 47.07 182.358 47.42 182.811 47.68C183.271 47.94 183.781 48.0733 184.341 48.08C184.941 48.08 185.485 47.9267 185.971 47.62C186.458 47.3067 186.851 46.88 187.151 46.34L188.861 46.74C188.461 47.6267 187.858 48.3533 187.051 48.92C186.245 49.48 185.341 49.76 184.341 49.76ZM181.081 43.79H187.601C187.548 43.23 187.368 42.72 187.061 42.26C186.755 41.7933 186.365 41.42 185.891 41.14C185.418 40.86 184.901 40.72 184.341 40.72C183.781 40.72 183.268 40.8567 182.801 41.13C182.335 41.4033 181.948 41.7733 181.641 42.24C181.341 42.7 181.155 43.2167 181.081 43.79ZM195.639 39.22C196.612 39.22 197.495 39.4567 198.289 39.93C199.089 40.4033 199.725 41.04 200.199 41.84C200.672 42.6333 200.909 43.5167 200.909 44.49C200.909 45.2167 200.772 45.9 200.499 46.54C200.225 47.1733 199.845 47.7333 199.359 48.22C198.879 48.7 198.319 49.0767 197.679 49.35C197.045 49.6233 196.365 49.76 195.639 49.76C194.865 49.76 194.192 49.58 193.619 49.22C193.052 48.8533 192.599 48.3767 192.259 47.79V49.5H190.579V34.5H192.259V41.19C192.599 40.6033 193.052 40.13 193.619 39.77C194.192 39.4033 194.865 39.22 195.639 39.22ZM195.619 48.12C196.279 48.12 196.879 47.9567 197.419 47.63C197.959 47.3033 198.389 46.8667 198.709 46.32C199.029 45.7667 199.189 45.1567 199.189 44.49C199.189 43.81 199.025 43.1967 198.699 42.65C198.372 42.0967 197.939 41.66 197.399 41.34C196.859 41.0133 196.265 40.85 195.619 40.85C194.965 40.85 194.395 41.0133 193.909 41.34C193.429 41.6667 193.055 42.1067 192.789 42.66C192.529 43.2133 192.399 43.8233 192.399 44.49C192.399 45.1633 192.529 45.7767 192.789 46.33C193.055 46.8767 193.432 47.3133 193.919 47.64C194.405 47.96 194.972 48.12 195.619 48.12ZM205.36 49.69C204.82 49.67 204.293 49.57 203.78 49.39C203.273 49.2033 202.827 48.9533 202.44 48.64C202.06 48.32 201.783 47.9533 201.61 47.54L203.05 46.92C203.15 47.1467 203.33 47.36 203.59 47.56C203.85 47.76 204.15 47.92 204.49 48.04C204.83 48.16 205.173 48.22 205.52 48.22C205.887 48.22 206.23 48.1633 206.55 48.05C206.87 47.9367 207.13 47.77 207.33 47.55C207.537 47.3233 207.64 47.0533 207.64 46.74C207.64 46.4067 207.527 46.1467 207.3 45.96C207.08 45.7667 206.8 45.6167 206.46 45.51C206.127 45.3967 205.787 45.29 205.44 45.19C204.753 45.0167 204.14 44.81 203.6 44.57C203.06 44.3233 202.633 44.0133 202.32 43.64C202.013 43.26 201.86 42.7767 201.86 42.19C201.86 41.57 202.03 41.0333 202.37 40.58C202.717 40.1267 203.17 39.7767 203.73 39.53C204.29 39.2833 204.89 39.16 205.53 39.16C206.337 39.16 207.073 39.3333 207.74 39.68C208.407 40.0267 208.903 40.4967 209.23 41.09L207.88 41.88C207.767 41.64 207.593 41.43 207.36 41.25C207.127 41.0633 206.86 40.9167 206.56 40.81C206.26 40.7033 205.953 40.6467 205.64 40.64C205.253 40.6267 204.89 40.6767 204.55 40.79C204.217 40.9033 203.947 41.0767 203.74 41.31C203.54 41.5367 203.44 41.82 203.44 42.16C203.44 42.4933 203.547 42.7467 203.76 42.92C203.98 43.0933 204.263 43.2333 204.61 43.34C204.963 43.44 205.347 43.5567 205.76 43.69C206.367 43.8833 206.933 44.1067 207.46 44.36C207.987 44.6133 208.41 44.93 208.73 45.31C209.057 45.69 209.217 46.16 209.21 46.72C209.21 47.3333 209.027 47.87 208.66 48.33C208.293 48.7833 207.817 49.13 207.23 49.37C206.65 49.61 206.027 49.7167 205.36 49.69ZM210.487 39.5H212.167V49.5H210.487V39.5ZM211.347 37.87C211.08 37.87 210.857 37.7833 210.677 37.61C210.497 37.4367 210.407 37.22 210.407 36.96C210.407 36.7 210.497 36.4833 210.677 36.31C210.857 36.1367 211.077 36.05 211.337 36.05C211.597 36.05 211.817 36.1367 211.997 36.31C212.177 36.4833 212.267 36.7 212.267 36.96C212.267 37.22 212.177 37.4367 211.997 37.61C211.823 37.7833 211.607 37.87 211.347 37.87ZM219.449 41.18H217.179L217.169 49.5H215.489L215.499 41.18H213.779V39.5H215.499L215.489 36.36H217.169L217.179 39.5H219.449V41.18ZM225.087 49.76C224.167 49.76 223.327 49.5233 222.567 49.05C221.814 48.5767 221.211 47.9433 220.757 47.15C220.311 46.35 220.087 45.4667 220.087 44.5C220.087 43.7667 220.217 43.0833 220.477 42.45C220.737 41.81 221.094 41.25 221.547 40.77C222.007 40.2833 222.541 39.9033 223.147 39.63C223.754 39.3567 224.401 39.22 225.087 39.22C225.841 39.22 226.531 39.3733 227.157 39.68C227.791 39.98 228.331 40.4 228.777 40.94C229.231 41.48 229.567 42.1067 229.787 42.82C230.014 43.5333 230.097 44.2967 230.037 45.11H221.877C221.957 45.6767 222.144 46.1833 222.437 46.63C222.731 47.07 223.104 47.42 223.557 47.68C224.017 47.94 224.527 48.0733 225.087 48.08C225.687 48.08 226.231 47.9267 226.717 47.62C227.204 47.3067 227.597 46.88 227.897 46.34L229.607 46.74C229.207 47.6267 228.604 48.3533 227.797 48.92C226.991 49.48 226.087 49.76 225.087 49.76ZM221.827 43.79H228.347C228.294 43.23 228.114 42.72 227.807 42.26C227.501 41.7933 227.111 41.42 226.637 41.14C226.164 40.86 225.647 40.72 225.087 40.72C224.527 40.72 224.014 40.8567 223.547 41.13C223.081 41.4033 222.694 41.7733 222.387 42.24C222.087 42.7 221.901 43.2167 221.827 43.79ZM231.359 45.3V35.5H232.809V45.3H231.359ZM232.089 49.76C231.829 49.76 231.609 49.67 231.429 49.49C231.249 49.31 231.159 49.09 231.159 48.83C231.159 48.5767 231.249 48.3633 231.429 48.19C231.609 48.01 231.829 47.92 232.089 47.92C232.336 47.92 232.546 48.01 232.719 48.19C232.899 48.3633 232.989 48.5767 232.989 48.83C232.989 49.09 232.899 49.31 232.719 49.49C232.546 49.67 232.336 49.76 232.089 49.76Z" fill="#171717"/>
<path d="M259.995 20C259.995 17 262.995 11 259.995 2M267.495 23.5C271.828 19.3333 280.695 9.2 281.495 2M270.495 30.5C273.162 30.5 280.295 29.1 287.495 23.5" stroke="#B53F55" stroke-width="4" stroke-linecap="round" stroke-linejoin="round"/>
</svg>
