<svg width="24" height="25" viewBox="0 0 24 25" fill="none" xmlns="http://www.w3.org/2000/svg">
<path d="M21.98 11.4915C21.64 5.69149 16.37 1.2215 10.3 2.2215C6.12004 2.9115 2.77005 6.30148 2.12005 10.4815C1.74005 12.9015 2.24007 15.1915 3.33007 17.0815L2.44006 20.3915C2.24006 21.1415 2.93004 21.8215 3.67004 21.6115L6.93005 20.7115C8.41005 21.5815 10.14 22.0815 11.99 22.0815C17.63 22.0815 22.31 17.1115 21.98 11.4915ZM16.8801 15.8015C16.7901 15.9815 16.68 16.1515 16.54 16.3115C16.29 16.5815 16.02 16.7815 15.72 16.9015C15.42 17.0315 15.09 17.0915 14.74 17.0915C14.23 17.0915 13.68 16.9715 13.11 16.7215C12.53 16.4715 11.9601 16.1415 11.3901 15.7315C10.8101 15.3115 10.2701 14.8415 9.75005 14.3315C9.23005 13.8115 8.77003 13.2615 8.35003 12.6915C7.94003 12.1215 7.61005 11.5515 7.37005 10.9815C7.13005 10.4115 7.01006 9.8615 7.01006 9.3415C7.01006 9.0015 7.07006 8.6715 7.19006 8.3715C7.31006 8.0615 7.50007 7.7815 7.77007 7.5315C8.09007 7.2115 8.44005 7.0615 8.81005 7.0615C8.95005 7.0615 9.09002 7.0915 9.22002 7.1515C9.35002 7.2115 9.47005 7.3015 9.56005 7.4315L10.72 9.07148C10.81 9.20148 10.88 9.31149 10.92 9.42149C10.97 9.53149 10.99 9.63148 10.99 9.73148C10.99 9.85148 10.9501 9.9715 10.8801 10.0915C10.8101 10.2115 10.72 10.3315 10.6 10.4515L10.22 10.8515C10.16 10.9115 10.1401 10.9715 10.1401 11.0515C10.1401 11.0915 10.15 11.1315 10.16 11.1715C10.18 11.2115 10.1901 11.2415 10.2001 11.2715C10.2901 11.4415 10.45 11.6515 10.67 11.9115C10.9 12.1715 11.1401 12.4415 11.4001 12.7015C11.6701 12.9715 11.9301 13.2115 12.2001 13.4415C12.4601 13.6615 12.68 13.8115 12.85 13.9015C12.88 13.9115 12.9101 13.9315 12.9401 13.9415C12.9801 13.9615 13.0201 13.9615 13.0701 13.9615C13.1601 13.9615 13.2201 13.9315 13.2801 13.8715L13.66 13.4915C13.79 13.3615 13.9101 13.2715 14.0201 13.2115C14.1401 13.1415 14.2501 13.1015 14.3801 13.1015C14.4801 13.1015 14.5801 13.1215 14.6901 13.1715C14.8001 13.2215 14.92 13.2815 15.04 13.3715L16.7001 14.5515C16.8301 14.6415 16.92 14.7515 16.98 14.8715C17.03 15.0015 17.0601 15.1215 17.0601 15.2615C17.0001 15.4315 16.9601 15.6215 16.8801 15.8015Z" fill="white"/>
</svg>
