<svg width="43" height="42" viewBox="0 0 43 42" fill="none" xmlns="http://www.w3.org/2000/svg">
<path d="M36.3388 6.59014C34.4153 4.70837 32.1244 3.21631 29.5996 2.20092C27.0749 1.18553 24.3668 0.667117 21.6332 0.675891C10.1791 0.675891 0.843851 9.72002 0.843851 20.8169C0.843851 24.3735 1.80884 27.8286 3.61296 30.8772L0.676025 41.3237L11.6895 38.519C14.7314 40.1246 18.1508 40.9782 21.6332 40.9782C33.0872 40.9782 42.4225 31.934 42.4225 20.8372C42.4225 15.4514 40.2618 10.3907 36.3388 6.59014ZM21.6332 37.5637C18.5284 37.5637 15.4866 36.7508 12.8224 35.2265L12.193 34.8607L5.64784 36.5272L7.38903 30.3488L6.96946 29.7187C5.24411 27.0503 4.32816 23.9656 4.32622 20.8169C4.32622 11.5898 12.0881 4.06998 21.6122 4.06998C26.2274 4.06998 30.5699 5.81783 33.8215 8.98836C35.4318 10.5408 36.7079 12.3876 37.5758 14.4216C38.4436 16.4556 38.886 18.6363 38.8772 20.8372C38.9192 30.0642 31.1572 37.5637 21.6332 37.5637ZM31.1153 25.0442C30.5908 24.8003 28.0315 23.5809 27.57 23.398C27.0875 23.2354 26.7518 23.1541 26.3952 23.6419C26.0386 24.15 25.0526 25.2881 24.7589 25.6133C24.4652 25.9588 24.1506 25.9995 23.6261 25.7352C23.1016 25.4914 21.4234 24.9426 19.4514 23.2354C17.8991 21.894 16.8711 20.2478 16.5565 19.7397C16.2628 19.2316 16.5145 18.9674 16.7872 18.7032C17.018 18.4796 17.3117 18.1138 17.5634 17.8293C17.8152 17.5447 17.92 17.3212 18.0879 16.996C18.2557 16.6505 18.1718 16.3659 18.0459 16.122C17.92 15.8782 16.8711 13.3986 16.4516 12.3825C16.032 11.4069 15.5915 11.5288 15.2768 11.5085H14.2699C13.9132 11.5085 13.3678 11.6305 12.8853 12.1386C12.4238 12.6467 11.0812 13.8661 11.0812 16.3456C11.0812 18.8251 12.9482 21.2233 13.2 21.5485C13.4517 21.894 16.8711 26.975 22.0737 29.1497C23.3114 29.6781 24.2764 29.9829 25.0316 30.2065C26.2693 30.5927 27.4022 30.5317 28.3042 30.4097C29.3112 30.2675 31.388 29.1903 31.8076 28.0115C32.2481 26.8327 32.2481 25.8369 32.1013 25.6133C31.9544 25.3897 31.6397 25.2881 31.1153 25.0442Z" fill="white"/>
</svg>
