<svg width="21" height="29" viewBox="0 0 21 29" fill="none" xmlns="http://www.w3.org/2000/svg">
<path d="M10.21 5.04102C9.21387 4.78711 8.24707 4.66016 7.30957 4.66016C5.00488 4.66016 2.90527 5.44141 1.01074 7.00391C1.02051 6.90625 0.986328 6.65234 0.908203 6.24219C0.839844 5.82227 0.81543 5.56348 0.834961 5.46582C3.40332 3.35645 6.19629 1.70605 9.21387 0.514648C13.1592 1.68652 16.7871 3.29785 20.0977 5.34863C19.8828 5.7002 19.6143 6.00781 19.292 6.27148C18.9697 6.53516 18.7012 6.83789 18.4863 7.17969C18.418 7.36523 18.3838 7.62891 18.3838 7.9707V8.76172L18.4863 16.6133C18.5156 17.248 18.6328 17.6436 18.8379 17.7998L20.3174 19.0156L17.7393 22.5459L14.3848 19.7041C14.5996 18.1709 14.707 16.1641 14.707 13.6836H9.22852C8.85742 17.1406 7.79785 20.0703 6.0498 22.4727C4.31152 24.875 2.74414 26.7549 1.34766 28.1123C0.9375 27.8193 0.566406 27.5752 0.234375 27.3799C1.36719 26.1982 2.21191 24.8457 2.76855 23.3223C3.33496 21.7988 3.81836 20.1924 4.21875 18.5029C4.61914 16.8037 4.81934 15.1436 4.81934 13.5225C4.81934 11.8916 4.46289 10.3633 3.75 8.9375C6.12305 7.75586 8.27637 6.45703 10.21 5.04102ZM14.6484 10.2412C14.6289 9.0791 14.6191 8.36621 14.6191 8.10254C14.6191 7.8291 14.624 7.52148 14.6338 7.17969C13.667 6.49609 12.6514 5.93457 11.5869 5.49512C10.8936 6.0127 10.3662 6.6084 10.0049 7.28223C9.64355 7.94629 9.42871 8.93262 9.36035 10.2412H14.6484Z" fill="white"/>
</svg>
