<svg width="100" height="22" viewBox="0 0 100 22" fill="none" xmlns="http://www.w3.org/2000/svg">
<g clip-path="url(#clip0_55134_440)">
<path d="M0 11C0 4.92487 4.94713 0 11.0497 0H88.9503C95.053 0 100 4.92487 100 11C100 17.0751 95.053 22 88.9503 22H11.0497C4.94713 22 0 17.0751 0 11Z" fill="#171717"/>
<path d="M10.8107 19.531C15.4545 19.531 19.219 15.7834 19.219 11.1605C19.219 6.53764 15.4545 2.79004 10.8107 2.79004C6.16689 2.79004 2.40234 6.53764 2.40234 11.1605C2.40234 15.7834 6.16689 19.531 10.8107 19.531Z" fill="#AA253D"/>
<path d="M15.082 9.3687L14.9522 9.66949C14.9319 9.7185 14.8976 9.7603 14.8538 9.78972C14.8099 9.8192 14.7583 9.83488 14.7056 9.83488C14.6529 9.83488 14.6014 9.8192 14.5576 9.78972C14.5137 9.7603 14.4794 9.7185 14.4592 9.66949L14.3293 9.3687C14.1011 8.83657 13.683 8.40994 13.1576 8.173L12.757 7.99282C12.7084 7.97032 12.6672 7.93424 12.6383 7.88887C12.6095 7.84355 12.5941 7.7908 12.5941 7.73696C12.5941 7.68306 12.6095 7.63037 12.6383 7.58499C12.6672 7.53962 12.7084 7.50359 12.757 7.48104L13.1354 7.31153C13.674 7.06783 14.0992 6.62541 14.3235 6.07541L14.4571 5.75069C14.4767 5.70042 14.5109 5.65724 14.5552 5.62677C14.5996 5.59636 14.652 5.58008 14.7056 5.58008C14.7593 5.58008 14.8118 5.59636 14.8561 5.62677C14.9004 5.65724 14.9346 5.70042 14.9543 5.75069L15.0878 6.07486C15.3118 6.62497 15.7369 7.06755 16.2754 7.31153L16.6543 7.48159C16.7028 7.50414 16.7438 7.54022 16.7725 7.58554C16.8013 7.63081 16.8166 7.68344 16.8166 7.73723C16.8166 7.79097 16.8013 7.8436 16.7725 7.88887C16.7438 7.93419 16.7028 7.97027 16.6543 7.99282L16.2532 8.17245C15.728 8.40966 15.3101 8.83646 15.082 9.3687ZM10.4832 7.17497C9.62658 7.17508 8.79022 7.43754 8.08525 7.92748C7.38022 8.41742 6.83989 9.11168 6.53597 9.91809C6.2321 10.7245 6.17895 11.6049 6.3837 12.4424C6.5884 13.28 7.04127 14.035 7.68216 14.6072C8.32309 15.1795 9.12171 15.542 9.97205 15.6466C10.8223 15.7511 11.6841 15.5928 12.443 15.1925C13.2018 14.7924 13.8218 14.1693 14.2207 13.406C14.6195 12.6426 14.7783 11.7752 14.6761 10.9189L15.7243 10.7935C15.749 11.0014 15.7613 11.2124 15.7613 11.4264C15.7613 14.3615 13.3983 16.7407 10.4832 16.7407C7.56807 16.7407 5.20508 14.3615 5.20508 11.4264C5.20508 8.49134 7.56807 6.11209 10.4832 6.11209C10.9376 6.11209 11.3799 6.17056 11.8017 6.27946L11.5388 7.30889C11.1939 7.21957 10.8392 7.17458 10.4832 7.17497ZM11.011 10.895H12.5944L9.95536 14.615V11.9578H8.37193L11.011 8.23784V10.895Z" fill="white"/>
<path d="M24.5403 7.975H25.2613L27.3745 13.75H26.7571L26.3055 12.5125H23.5002L23.0486 13.75H22.4312L24.5403 7.975ZM23.7115 11.935H26.09L24.9008 8.6845L23.7115 11.935ZM28.1487 13.75V7.975H28.7288V13.75H28.1487ZM29.721 10.9863H32.373V11.5637H29.721V10.9863ZM33.2467 13.75V7.975H35.1031C35.4125 7.975 35.6915 8.05063 35.9401 8.20188C36.1887 8.35038 36.3862 8.5525 36.5326 8.80825C36.6818 9.06125 36.7564 9.34587 36.7564 9.66212C36.7564 9.98112 36.6804 10.2685 36.5285 10.5243C36.3793 10.78 36.1791 10.9821 35.9277 11.1306C35.6791 11.2791 35.4042 11.3534 35.1031 11.3534H33.8268V13.75H33.2467ZM33.8268 10.7759H35.0575C35.2619 10.7759 35.4484 10.7264 35.6169 10.6274C35.7882 10.5256 35.9235 10.3895 36.023 10.219C36.1252 10.0457 36.1763 9.8505 36.1763 9.63325C36.1763 9.416 36.1252 9.22213 36.023 9.05163C35.9235 8.87838 35.7882 8.74225 35.6169 8.64325C35.4484 8.5415 35.2619 8.49063 35.0575 8.49063H33.8268V10.7759ZM38.9436 13.8572C38.5624 13.8572 38.2143 13.7596 37.8994 13.5644C37.5872 13.3691 37.3372 13.1079 37.1494 12.7806C36.9643 12.4506 36.8718 12.0863 36.8718 11.6875C36.8718 11.385 36.9256 11.1031 37.0334 10.8419C37.1411 10.5779 37.2889 10.3469 37.4767 10.1489C37.6673 9.94812 37.8883 9.79137 38.1397 9.67862C38.3911 9.56588 38.6591 9.5095 38.9436 9.5095C39.3248 9.5095 39.6715 9.60713 39.9836 9.80238C40.2986 9.99763 40.5486 10.2602 40.7336 10.5902C40.9215 10.9202 41.0154 11.286 41.0154 11.6875C41.0154 11.9873 40.9615 12.2678 40.8538 12.529C40.7461 12.7903 40.5969 13.0213 40.4063 13.222C40.2184 13.42 39.9988 13.5754 39.7474 13.6881C39.4988 13.8009 39.2309 13.8572 38.9436 13.8572ZM38.9436 13.2798C39.2254 13.2798 39.4781 13.2069 39.7019 13.0611C39.9284 12.9126 40.1066 12.7174 40.2364 12.4754C40.369 12.2334 40.4353 11.9707 40.4353 11.6875C40.4353 11.3988 40.369 11.1334 40.2364 10.8914C40.1038 10.6466 39.9242 10.4514 39.6977 10.3056C39.474 10.1599 39.2226 10.087 38.9436 10.087C38.6618 10.087 38.4077 10.1613 38.1812 10.3098C37.9574 10.4555 37.7792 10.6494 37.6466 10.8914C37.5168 11.1334 37.4519 11.3988 37.4519 11.6875C37.4519 11.9845 37.5196 12.254 37.6549 12.496C37.7903 12.7352 37.9712 12.9264 38.1977 13.0694C38.4242 13.2096 38.6729 13.2798 38.9436 13.2798ZM43.151 13.75H42.5544L41.1662 9.625H41.7339L42.861 12.9497L43.9798 9.625H44.593L45.7118 12.9497L46.8306 9.625H47.4024L46.0143 13.75H45.4135L44.2781 10.3923L43.151 13.75ZM49.6287 13.8572C49.2475 13.8572 48.8994 13.7596 48.5845 13.5644C48.2723 13.3691 48.0223 13.1079 47.8345 12.7806C47.6494 12.4506 47.5568 12.0863 47.5568 11.6875C47.5568 11.385 47.6107 11.1031 47.7184 10.8419C47.8262 10.5779 47.974 10.3469 48.1618 10.1489C48.3524 9.94812 48.5734 9.79137 48.8248 9.67862C49.0762 9.56588 49.3441 9.5095 49.6287 9.5095C49.9353 9.5095 50.2171 9.57 50.474 9.691C50.7336 9.812 50.956 9.98112 51.1411 10.1984C51.3289 10.4156 51.4698 10.67 51.5638 10.9615C51.6604 11.253 51.7005 11.5679 51.6839 11.9061H48.1701C48.2033 12.1674 48.2861 12.4011 48.4187 12.6074C48.5541 12.8136 48.7253 12.9773 48.9325 13.0983C49.1425 13.2165 49.3745 13.277 49.6287 13.2798C49.9049 13.2798 50.1535 13.2082 50.3745 13.0652C50.5983 12.9222 50.7778 12.7256 50.9132 12.4754L51.5016 12.6115C51.3358 12.9773 51.0858 13.277 50.7516 13.5108C50.4173 13.7418 50.043 13.8572 49.6287 13.8572ZM48.1535 11.44H51.0997C51.0803 11.1842 51.0016 10.9505 50.8635 10.7387C50.7281 10.5242 50.5527 10.3537 50.3372 10.2272C50.1218 10.098 49.8856 10.0334 49.6287 10.0334C49.3718 10.0334 49.137 10.0966 48.9242 10.2231C48.7115 10.3469 48.5375 10.516 48.4021 10.7305C48.2668 10.9423 48.1839 11.1787 48.1535 11.44ZM52.2699 13.75V9.625H52.85V10.1942C52.9965 9.98525 53.1871 9.81888 53.4219 9.69513C53.6567 9.57138 53.9122 9.5095 54.1884 9.5095C54.3487 9.5095 54.5034 9.53013 54.6525 9.57138L54.4163 10.1447C54.3003 10.109 54.1871 10.0911 54.0766 10.0911C53.8528 10.0911 53.647 10.1461 53.4592 10.2561C53.2741 10.3661 53.1263 10.5133 53.0158 10.6975C52.9053 10.8818 52.85 11.0866 52.85 11.3121V13.75H52.2699ZM56.6555 13.8572C56.2742 13.8572 55.9262 13.7596 55.6113 13.5644C55.2991 13.3691 55.0494 13.1079 54.8615 12.7806C54.6765 12.4506 54.5839 12.0863 54.5839 11.6875C54.5839 11.385 54.6378 11.1031 54.7455 10.8419C54.8533 10.5779 55.001 10.3469 55.1889 10.1489C55.3792 9.94812 55.6002 9.79137 55.8516 9.67862C56.103 9.56588 56.3709 9.5095 56.6555 9.5095C56.9621 9.5095 57.2439 9.57 57.5008 9.691C57.7604 9.812 57.9831 9.98112 58.1682 10.1984C58.356 10.4156 58.4969 10.67 58.5908 10.9615C58.6875 11.253 58.7273 11.5679 58.7107 11.9061H55.1972C55.2303 12.1674 55.3129 12.4011 55.4455 12.6074C55.5809 12.8136 55.7521 12.9773 55.9593 13.0983C56.1693 13.2165 56.4013 13.277 56.6555 13.2798C56.9317 13.2798 57.1803 13.2082 57.4013 13.0652C57.6251 12.9222 57.8046 12.7256 57.94 12.4754L58.5284 12.6115C58.3626 12.9773 58.1129 13.277 57.7787 13.5108C57.4444 13.7418 57.0698 13.8572 56.6555 13.8572ZM55.1806 11.44H58.1267C58.1074 11.1842 58.0284 10.9505 57.8903 10.7387C57.7549 10.5242 57.5798 10.3537 57.3643 10.2272C57.1488 10.098 56.9124 10.0334 56.6555 10.0334C56.3986 10.0334 56.1637 10.0966 55.951 10.2231C55.7383 10.3469 55.5643 10.516 55.4289 10.7305C55.2936 10.9423 55.211 11.1787 55.1806 11.44ZM62.6665 7.5625H63.2466V13.75H62.6665V12.9786C62.5229 13.2426 62.3256 13.4558 62.0742 13.618C61.8256 13.7775 61.53 13.8572 61.1875 13.8572C60.8864 13.8572 60.6046 13.8009 60.3422 13.6881C60.0798 13.5754 59.8477 13.42 59.6461 13.222C59.4472 13.0213 59.2908 12.7903 59.1776 12.529C59.0643 12.2678 59.0079 11.9873 59.0079 11.6875C59.0079 11.3878 59.0643 11.1072 59.1776 10.846C59.2908 10.582 59.4472 10.351 59.6461 10.153C59.8477 9.95225 60.0798 9.7955 60.3422 9.68275C60.6046 9.57 60.8864 9.51363 61.1875 9.51363C61.53 9.51363 61.8256 9.59475 62.0742 9.757C62.3256 9.9165 62.5229 10.1269 62.6665 10.3881V7.5625ZM61.1914 13.2962C61.487 13.2962 61.7411 13.2248 61.9538 13.0817C62.1665 12.936 62.3295 12.7407 62.4428 12.496C62.5588 12.2512 62.6168 11.9818 62.6168 11.6875C62.6168 11.385 62.5588 11.1127 62.4428 10.8707C62.3267 10.626 62.1626 10.4321 61.9499 10.2891C61.7372 10.1461 61.4842 10.0746 61.1914 10.0746C60.8986 10.0746 60.6323 10.1475 60.3919 10.2933C60.1516 10.4363 59.9593 10.6301 59.8157 10.8749C59.672 11.1196 59.6002 11.3905 59.6002 11.6875C59.6002 11.9873 59.6737 12.2595 59.8201 12.5043C59.9665 12.7463 60.1599 12.9388 60.4002 13.0817C60.6433 13.2248 60.9068 13.2962 61.1914 13.2962ZM65.9842 13.75V7.975H67.8405C68.1499 7.975 68.4289 8.05063 68.6776 8.20188C68.9262 8.35038 69.1234 8.5525 69.2698 8.80825C69.419 9.06125 69.4936 9.34587 69.4936 9.66212C69.4936 9.98112 69.4179 10.2685 69.266 10.5243C69.1168 10.78 68.9162 10.9821 68.6649 11.1306C68.4162 11.2791 68.1417 11.3534 67.8405 11.3534H66.5643V13.75H65.9842ZM66.5643 10.7759H67.7947C67.9991 10.7759 68.1858 10.7264 68.3544 10.6274C68.5256 10.5256 68.661 10.3895 68.7604 10.219C68.8626 10.0457 68.9135 9.8505 68.9135 9.63325C68.9135 9.416 68.8626 9.22213 68.7604 9.05163C68.661 8.87838 68.5256 8.74225 68.3544 8.64325C68.1858 8.5415 67.9991 8.49063 67.7947 8.49063H66.5643V10.7759ZM70.1168 13.75V9.625H70.6969V10.1942C70.8433 9.98525 71.0339 9.81888 71.2687 9.69513C71.5035 9.57138 71.7588 9.5095 72.035 9.5095C72.1952 9.5095 72.3499 9.53013 72.4991 9.57138L72.2632 10.1447C72.1472 10.109 72.0339 10.0911 71.9234 10.0911C71.6997 10.0911 71.4936 10.1461 71.3057 10.2561C71.1207 10.3661 70.9731 10.5133 70.8626 10.6975C70.7521 10.8818 70.6969 11.0866 70.6969 11.3121V13.75H70.1168ZM74.5024 13.8572C74.1212 13.8572 73.7731 13.7596 73.4582 13.5644C73.1461 13.3691 72.8963 13.1079 72.7085 12.7806C72.5234 12.4506 72.4306 12.0863 72.4306 11.6875C72.4306 11.385 72.4847 11.1031 72.5925 10.8419C72.7002 10.5779 72.8477 10.3469 73.0356 10.1489C73.2262 9.94812 73.4472 9.79137 73.6986 9.67862C73.9499 9.56588 74.2179 9.5095 74.5024 9.5095C74.8836 9.5095 75.2306 9.60713 75.5428 9.80238C75.8577 9.99763 76.1074 10.2602 76.2925 10.5902C76.4803 10.9202 76.5742 11.286 76.5742 11.6875C76.5742 11.9873 76.5207 12.2678 76.4129 12.529C76.3052 12.7903 76.156 13.0213 75.9654 13.222C75.7776 13.42 75.5577 13.5754 75.3063 13.6881C75.0577 13.8009 74.7897 13.8572 74.5024 13.8572ZM74.5024 13.2798C74.7842 13.2798 75.0372 13.2069 75.261 13.0611C75.4875 12.9126 75.6654 12.7174 75.7952 12.4754C75.9278 12.2334 75.9941 11.9707 75.9941 11.6875C75.9941 11.3988 75.9278 11.1334 75.7952 10.8914C75.6626 10.6466 75.4831 10.4514 75.2566 10.3056C75.0328 10.1599 74.7814 10.087 74.5024 10.087C74.2207 10.087 73.9665 10.1613 73.74 10.3098C73.5162 10.4555 73.3383 10.6494 73.2057 10.8914C73.0759 11.1334 73.0107 11.3988 73.0107 11.6875C73.0107 11.9845 73.0787 12.254 73.214 12.496C73.3494 12.7352 73.53 12.9264 73.7566 13.0694C73.9831 13.2096 74.2317 13.2798 74.5024 13.2798ZM76.2825 15.8125V15.235C76.4897 15.235 76.6748 15.1896 76.8378 15.0989C77.0008 15.0081 77.1295 14.883 77.2234 14.7235C77.3173 14.5668 77.3643 14.3907 77.3643 14.1955V9.625H77.9444V14.1955C77.9444 14.4925 77.8709 14.7634 77.7245 15.0081C77.5809 15.2529 77.3836 15.4481 77.1323 15.5939C76.8836 15.7396 76.6002 15.8125 76.2825 15.8125ZM77.6582 8.90313C77.5643 8.90313 77.4842 8.87287 77.4179 8.81237C77.3544 8.74912 77.3229 8.67075 77.3229 8.57725C77.3229 8.48375 77.3544 8.40675 77.4179 8.34625C77.4842 8.283 77.5643 8.25137 77.6582 8.25137C77.7494 8.25137 77.8267 8.283 77.8903 8.34625C77.9566 8.40675 77.9897 8.48375 77.9897 8.57725C77.9897 8.67075 77.9582 8.74912 77.8947 8.81237C77.8312 8.87287 77.7521 8.90313 77.6582 8.90313ZM80.5991 13.8572C80.2179 13.8572 79.8698 13.7596 79.5549 13.5644C79.2428 13.3691 78.9925 13.1079 78.8046 12.7806C78.6196 12.4506 78.5273 12.0863 78.5273 11.6875C78.5273 11.385 78.5809 11.1031 78.6886 10.8419C78.7963 10.5779 78.9444 10.3469 79.1323 10.1489C79.3229 9.94812 79.5439 9.79137 79.7952 9.67862C80.0466 9.56588 80.3146 9.5095 80.5991 9.5095C80.9057 9.5095 81.1875 9.57 81.4444 9.691C81.7041 9.812 81.9262 9.98112 82.1113 10.1984C82.2991 10.4156 82.44 10.67 82.5339 10.9615C82.6306 11.253 82.6709 11.5679 82.6544 11.9061H79.1405C79.1737 12.1674 79.2566 12.4011 79.3892 12.6074C79.5245 12.8136 79.6958 12.9773 79.903 13.0983C80.1129 13.2165 80.345 13.277 80.5991 13.2798C80.8754 13.2798 81.124 13.2082 81.345 13.0652C81.5687 12.9222 81.7483 12.7256 81.8836 12.4754L82.472 12.6115C82.3063 12.9773 82.056 13.277 81.7218 13.5108C81.3875 13.7418 81.0135 13.8572 80.5991 13.8572ZM79.124 11.44H82.0698C82.0505 11.1842 81.972 10.9505 81.8339 10.7387C81.6986 10.5242 81.5229 10.3537 81.3074 10.2272C81.0919 10.098 80.856 10.0334 80.5991 10.0334C80.3422 10.0334 80.1074 10.0966 79.8947 10.2231C79.682 10.3469 79.5079 10.516 79.3726 10.7305C79.2372 10.9423 79.1544 11.1787 79.124 11.44ZM86.1582 12.7146L86.6765 12.9951C86.4886 13.2564 86.2494 13.4654 85.9593 13.6221C85.672 13.7789 85.3599 13.8572 85.0229 13.8572C84.6417 13.8572 84.2936 13.7596 83.9787 13.5644C83.6665 13.3691 83.4168 13.1079 83.2289 12.7806C83.0439 12.4506 82.951 12.0863 82.951 11.6875C82.951 11.385 83.0052 11.1031 83.1129 10.8419C83.2207 10.5779 83.3682 10.3469 83.556 10.1489C83.7466 9.94812 83.9676 9.79137 84.219 9.67862C84.4704 9.56588 84.7383 9.5095 85.0229 9.5095C85.3599 9.5095 85.672 9.58788 85.9593 9.74463C86.2494 9.90138 86.4886 10.1117 86.6765 10.3757L86.1582 10.6521C86.0146 10.4706 85.8422 10.3318 85.6405 10.2355C85.4389 10.1365 85.2328 10.087 85.0229 10.087C84.7439 10.087 84.4914 10.1613 84.2649 10.3098C84.0383 10.4555 83.8588 10.6494 83.7262 10.8914C83.5963 11.1334 83.5312 11.3988 83.5312 11.6875C83.5312 11.9763 83.5974 12.2416 83.73 12.4836C83.8654 12.7256 84.0466 12.9195 84.2731 13.0652C84.4997 13.2082 84.7494 13.2798 85.0229 13.2798C85.2494 13.2798 85.4621 13.2275 85.661 13.123C85.8599 13.0185 86.0256 12.8824 86.1582 12.7146ZM89.4173 10.2025H88.4273L88.4229 13.75H87.8428L87.8472 10.2025H87.0969V9.625H87.8472L87.8428 8.32975H88.4229L88.4273 9.625H89.4173V10.2025ZM91.2803 13.8284C91.0538 13.8229 90.8328 13.7816 90.6173 13.7046C90.4019 13.6276 90.214 13.5231 90.0538 13.3911C89.8936 13.2591 89.7792 13.1093 89.7102 12.9415L90.2113 12.727C90.2555 12.8342 90.3372 12.9333 90.456 13.024C90.5776 13.112 90.7157 13.1835 90.8704 13.2385C91.0251 13.2908 91.1781 13.3169 91.33 13.3169C91.4986 13.3169 91.656 13.2894 91.8024 13.2344C91.9488 13.1794 92.0676 13.101 92.1588 12.9993C92.2527 12.8948 92.2997 12.7724 92.2997 12.6321C92.2997 12.4809 92.2499 12.3626 92.1505 12.2774C92.051 12.1894 91.9256 12.1206 91.7737 12.0711C91.6218 12.0189 91.4654 11.9694 91.3052 11.9226C91.0124 11.8429 90.7544 11.7549 90.5306 11.6586C90.3068 11.5624 90.1311 11.44 90.0041 11.2915C89.8798 11.1403 89.8179 10.9464 89.8179 10.7099C89.8179 10.4596 89.8881 10.2438 90.0289 10.0623C90.1726 9.878 90.3593 9.73637 90.5886 9.63737C90.8207 9.53562 91.0676 9.48475 91.33 9.48475C91.6671 9.48475 91.9737 9.55763 92.2499 9.70338C92.5289 9.84912 92.7306 10.043 92.8549 10.285L92.387 10.5614C92.3372 10.4486 92.2582 10.351 92.1505 10.2685C92.0428 10.186 91.9201 10.1214 91.782 10.0746C91.6466 10.0279 91.5085 10.0031 91.3676 10.0004C91.1908 9.99763 91.0262 10.0238 90.8742 10.0788C90.7223 10.131 90.5997 10.2094 90.5057 10.3139C90.4146 10.4184 90.3687 10.5463 90.3687 10.6975C90.3687 10.8488 90.4146 10.9643 90.5057 11.044C90.5969 11.121 90.7195 11.1842 90.8742 11.2337C91.0317 11.2805 91.2085 11.3355 91.4046 11.3988C91.656 11.4785 91.8925 11.5692 92.1135 11.671C92.3345 11.7727 92.5124 11.8993 92.6477 12.0505C92.7831 12.2017 92.8494 12.3929 92.8466 12.6239C92.8466 12.8714 92.772 13.0872 92.6229 13.2715C92.4737 13.4557 92.2803 13.5974 92.0428 13.6964C91.8052 13.7926 91.551 13.8366 91.2803 13.8284Z" fill="white"/>
</g>
<defs>
<clipPath id="clip0_55134_440">
<rect width="100" height="22" fill="white"/>
</clipPath>
</defs>
</svg>
