<svg width="181" height="40" viewBox="0 0 181 40" fill="none" xmlns="http://www.w3.org/2000/svg">
<path d="M0 20C0 8.95431 8.9543 0 20 0H161C172.046 0 181 8.95431 181 20C181 31.0457 172.046 40 161 40H20C8.9543 40 0 31.0457 0 20Z" fill="#171717"/>
<circle cx="19.5672" cy="20.2919" r="15.2191" fill="#AA253D"/>
<path d="M27.2986 17.0344L27.0636 17.5813C27.0269 17.6704 26.9649 17.7464 26.8855 17.7999C26.8061 17.8535 26.7128 17.882 26.6174 17.882C26.522 17.882 26.4288 17.8535 26.3494 17.7999C26.27 17.7464 26.208 17.6704 26.1713 17.5813L25.9363 17.0344C25.5231 16.0669 24.7664 15.2912 23.8154 14.8604L23.0903 14.5328C23.0024 14.4919 22.9279 14.4263 22.8756 14.3438C22.8234 14.2614 22.7956 14.1655 22.7956 14.0676C22.7956 13.9696 22.8234 13.8738 22.8756 13.7913C22.9279 13.7088 23.0024 13.6433 23.0903 13.6023L23.7753 13.2941C24.7501 12.851 25.5198 12.0466 25.9258 11.0466L26.1675 10.4562C26.203 10.3648 26.2649 10.2863 26.3452 10.2309C26.4254 10.1756 26.5203 10.146 26.6174 10.146C26.7146 10.146 26.8095 10.1756 26.8897 10.2309C26.97 10.2863 27.0319 10.3648 27.0674 10.4562L27.3091 11.0456C27.7146 12.0458 28.484 12.8505 29.4586 13.2941L30.1445 13.6033C30.2322 13.6443 30.3065 13.7099 30.3585 13.7923C30.4106 13.8746 30.4382 13.9703 30.4382 14.0681C30.4382 14.1658 30.4106 14.2615 30.3585 14.3438C30.3065 14.4262 30.2322 14.4918 30.1445 14.5328L29.4185 14.8594C28.4678 15.2907 27.7114 16.0667 27.2986 17.0344ZM18.9748 13.0458C17.4243 13.046 15.9105 13.5232 14.6345 14.414C13.3584 15.3048 12.3804 16.5671 11.8303 18.0333C11.2803 19.4995 11.1841 21.1003 11.5547 22.623C11.9252 24.1458 12.7449 25.5185 13.9049 26.559C15.065 27.5995 16.5105 28.2586 18.0496 28.4487C19.5886 28.6387 21.1485 28.3509 22.522 27.6232C23.8955 26.8956 25.0177 25.7627 25.7396 24.3749C26.4615 22.987 26.749 21.4099 26.5639 19.8529L28.4612 19.6249C28.5058 20.003 28.5281 20.3866 28.5281 20.7757C28.5281 26.1123 24.2511 30.4381 18.9748 30.4381C13.6984 30.4381 9.42139 26.1123 9.42139 20.7757C9.42139 15.4392 13.6984 11.1133 18.9748 11.1133C19.7973 11.1133 20.5979 11.2196 21.3612 11.4176L20.8854 13.2893C20.2612 13.1269 19.6192 13.0451 18.9748 13.0458ZM19.9301 19.8095H22.7961L18.0194 26.5732V21.7419H15.1534L19.9301 14.9783V19.8095Z" fill="white"/>
<path d="M44.4175 14.5H45.7225L49.5475 25H48.43L47.6125 22.75H42.535L41.7175 25H40.6L44.4175 14.5ZM42.9175 21.7H47.2225L45.07 15.79L42.9175 21.7ZM50.9488 25V14.5H51.9988V25H50.9488ZM53.7947 19.975H58.5947V21.025H53.7947V19.975ZM60.1762 25V14.5H63.5362C64.0962 14.5 64.6012 14.6375 65.0512 14.9125C65.5012 15.1825 65.8587 15.55 66.1237 16.015C66.3937 16.475 66.5287 16.9925 66.5287 17.5675C66.5287 18.1475 66.3912 18.67 66.1162 19.135C65.8462 19.6 65.4837 19.9675 65.0287 20.2375C64.5787 20.5075 64.0812 20.6425 63.5362 20.6425H61.2262V25H60.1762ZM61.2262 19.5925H63.4537C63.8237 19.5925 64.1612 19.5025 64.4662 19.3225C64.7762 19.1375 65.0212 18.89 65.2012 18.58C65.3862 18.265 65.4787 17.91 65.4787 17.515C65.4787 17.12 65.3862 16.7675 65.2012 16.4575C65.0212 16.1425 64.7762 15.895 64.4662 15.715C64.1612 15.53 63.8237 15.4375 63.4537 15.4375H61.2262V19.5925ZM70.4875 25.195C69.7975 25.195 69.1675 25.0175 68.5975 24.6625C68.0325 24.3075 67.58 23.8325 67.24 23.2375C66.905 22.6375 66.7375 21.975 66.7375 21.25C66.7375 20.7 66.835 20.1875 67.03 19.7125C67.225 19.2325 67.4925 18.8125 67.8325 18.4525C68.1775 18.0875 68.5775 17.8025 69.0325 17.5975C69.4875 17.3925 69.9725 17.29 70.4875 17.29C71.1775 17.29 71.805 17.4675 72.37 17.8225C72.94 18.1775 73.3925 18.655 73.7275 19.255C74.0675 19.855 74.2375 20.52 74.2375 21.25C74.2375 21.795 74.14 22.305 73.945 22.78C73.75 23.255 73.48 23.675 73.135 24.04C72.795 24.4 72.3975 24.6825 71.9425 24.8875C71.4925 25.0925 71.0075 25.195 70.4875 25.195ZM70.4875 24.145C70.9975 24.145 71.455 24.0125 71.86 23.7475C72.27 23.4775 72.5925 23.1225 72.8275 22.6825C73.0675 22.2425 73.1875 21.765 73.1875 21.25C73.1875 20.725 73.0675 20.2425 72.8275 19.8025C72.5875 19.3575 72.2625 19.0025 71.8525 18.7375C71.4475 18.4725 70.9925 18.34 70.4875 18.34C69.9775 18.34 69.5175 18.475 69.1075 18.745C68.7025 19.01 68.38 19.3625 68.14 19.8025C67.905 20.2425 67.7875 20.725 67.7875 21.25C67.7875 21.79 67.91 22.28 68.155 22.72C68.4 23.155 68.7275 23.5025 69.1375 23.7625C69.5475 24.0175 69.9975 24.145 70.4875 24.145ZM78.103 25H77.023L74.5105 17.5H75.538L77.578 23.545L79.603 17.5H80.713L82.738 23.545L84.763 17.5H85.798L83.2855 25H82.198L80.143 18.895L78.103 25ZM89.8275 25.195C89.1375 25.195 88.5075 25.0175 87.9375 24.6625C87.3725 24.3075 86.92 23.8325 86.58 23.2375C86.245 22.6375 86.0775 21.975 86.0775 21.25C86.0775 20.7 86.175 20.1875 86.37 19.7125C86.565 19.2325 86.8325 18.8125 87.1725 18.4525C87.5175 18.0875 87.9175 17.8025 88.3725 17.5975C88.8275 17.3925 89.3125 17.29 89.8275 17.29C90.3825 17.29 90.8925 17.4 91.3575 17.62C91.8275 17.84 92.23 18.1475 92.565 18.5425C92.905 18.9375 93.16 19.4 93.33 19.93C93.505 20.46 93.5775 21.0325 93.5475 21.6475H87.1875C87.2475 22.1225 87.3975 22.5475 87.6375 22.9225C87.8825 23.2975 88.1925 23.595 88.5675 23.815C88.9475 24.03 89.3675 24.14 89.8275 24.145C90.3275 24.145 90.7775 24.015 91.1775 23.755C91.5825 23.495 91.9075 23.1375 92.1525 22.6825L93.2175 22.93C92.9175 23.595 92.465 24.14 91.86 24.565C91.255 24.985 90.5775 25.195 89.8275 25.195ZM87.1575 20.8H92.49C92.455 20.335 92.3125 19.91 92.0625 19.525C91.8175 19.135 91.5 18.825 91.11 18.595C90.72 18.36 90.2925 18.2425 89.8275 18.2425C89.3625 18.2425 88.9375 18.3575 88.5525 18.5875C88.1675 18.8125 87.8525 19.12 87.6075 19.51C87.3625 19.895 87.2125 20.325 87.1575 20.8ZM94.6082 25V17.5H95.6582V18.535C95.9232 18.155 96.2682 17.8525 96.6932 17.6275C97.1182 17.4025 97.5807 17.29 98.0807 17.29C98.3707 17.29 98.6507 17.3275 98.9207 17.4025L98.4932 18.445C98.2832 18.38 98.0782 18.3475 97.8782 18.3475C97.4732 18.3475 97.1007 18.4475 96.7607 18.6475C96.4257 18.8475 96.1582 19.115 95.9582 19.45C95.7582 19.785 95.6582 20.1575 95.6582 20.5675V25H94.6082ZM102.546 25.195C101.856 25.195 101.226 25.0175 100.656 24.6625C100.091 24.3075 99.639 23.8325 99.299 23.2375C98.964 22.6375 98.7965 21.975 98.7965 21.25C98.7965 20.7 98.894 20.1875 99.089 19.7125C99.284 19.2325 99.5515 18.8125 99.8915 18.4525C100.236 18.0875 100.636 17.8025 101.091 17.5975C101.546 17.3925 102.031 17.29 102.546 17.29C103.101 17.29 103.611 17.4 104.076 17.62C104.546 17.84 104.949 18.1475 105.284 18.5425C105.624 18.9375 105.879 19.4 106.049 19.93C106.224 20.46 106.296 21.0325 106.266 21.6475H99.9065C99.9665 22.1225 100.116 22.5475 100.356 22.9225C100.601 23.2975 100.911 23.595 101.286 23.815C101.666 24.03 102.086 24.14 102.546 24.145C103.046 24.145 103.496 24.015 103.896 23.755C104.301 23.495 104.626 23.1375 104.871 22.6825L105.936 22.93C105.636 23.595 105.184 24.14 104.579 24.565C103.974 24.985 103.296 25.195 102.546 25.195ZM99.8765 20.8H105.209C105.174 20.335 105.031 19.91 104.781 19.525C104.536 19.135 104.219 18.825 103.829 18.595C103.439 18.36 103.011 18.2425 102.546 18.2425C102.081 18.2425 101.656 18.3575 101.271 18.5875C100.886 18.8125 100.571 19.12 100.326 19.51C100.081 19.895 99.9315 20.325 99.8765 20.8ZM113.426 13.75H114.476V25H113.426V23.5975C113.166 24.0775 112.809 24.465 112.354 24.76C111.904 25.05 111.369 25.195 110.749 25.195C110.204 25.195 109.694 25.0925 109.219 24.8875C108.744 24.6825 108.324 24.4 107.959 24.04C107.599 23.675 107.316 23.255 107.111 22.78C106.906 22.305 106.804 21.795 106.804 21.25C106.804 20.705 106.906 20.195 107.111 19.72C107.316 19.24 107.599 18.82 107.959 18.46C108.324 18.095 108.744 17.81 109.219 17.605C109.694 17.4 110.204 17.2975 110.749 17.2975C111.369 17.2975 111.904 17.445 112.354 17.74C112.809 18.03 113.166 18.4125 113.426 18.8875V13.75ZM110.756 24.175C111.291 24.175 111.751 24.045 112.136 23.785C112.521 23.52 112.816 23.165 113.021 22.72C113.231 22.275 113.336 21.785 113.336 21.25C113.336 20.7 113.231 20.205 113.021 19.765C112.811 19.32 112.514 18.9675 112.129 18.7075C111.744 18.4475 111.286 18.3175 110.756 18.3175C110.226 18.3175 109.744 18.45 109.309 18.715C108.874 18.975 108.526 19.3275 108.266 19.7725C108.006 20.2175 107.876 20.71 107.876 21.25C107.876 21.795 108.009 22.29 108.274 22.735C108.539 23.175 108.889 23.525 109.324 23.785C109.764 24.045 110.241 24.175 110.756 24.175ZM119.431 25V14.5H122.791C123.351 14.5 123.856 14.6375 124.306 14.9125C124.756 15.1825 125.113 15.55 125.378 16.015C125.648 16.475 125.783 16.9925 125.783 17.5675C125.783 18.1475 125.646 18.67 125.371 19.135C125.101 19.6 124.738 19.9675 124.283 20.2375C123.833 20.5075 123.336 20.6425 122.791 20.6425H120.481V25H119.431ZM120.481 19.5925H122.708C123.078 19.5925 123.416 19.5025 123.721 19.3225C124.031 19.1375 124.276 18.89 124.456 18.58C124.641 18.265 124.733 17.91 124.733 17.515C124.733 17.12 124.641 16.7675 124.456 16.4575C124.276 16.1425 124.031 15.895 123.721 15.715C123.416 15.53 123.078 15.4375 122.708 15.4375H120.481V19.5925ZM126.911 25V17.5H127.961V18.535C128.226 18.155 128.571 17.8525 128.996 17.6275C129.421 17.4025 129.883 17.29 130.383 17.29C130.673 17.29 130.953 17.3275 131.223 17.4025L130.796 18.445C130.586 18.38 130.381 18.3475 130.181 18.3475C129.776 18.3475 129.403 18.4475 129.063 18.6475C128.728 18.8475 128.461 19.115 128.261 19.45C128.061 19.785 127.961 20.1575 127.961 20.5675V25H126.911ZM134.849 25.195C134.159 25.195 133.529 25.0175 132.959 24.6625C132.394 24.3075 131.942 23.8325 131.602 23.2375C131.267 22.6375 131.099 21.975 131.099 21.25C131.099 20.7 131.197 20.1875 131.392 19.7125C131.587 19.2325 131.854 18.8125 132.194 18.4525C132.539 18.0875 132.939 17.8025 133.394 17.5975C133.849 17.3925 134.334 17.29 134.849 17.29C135.539 17.29 136.167 17.4675 136.732 17.8225C137.302 18.1775 137.754 18.655 138.089 19.255C138.429 19.855 138.599 20.52 138.599 21.25C138.599 21.795 138.502 22.305 138.307 22.78C138.112 23.255 137.842 23.675 137.497 24.04C137.157 24.4 136.759 24.6825 136.304 24.8875C135.854 25.0925 135.369 25.195 134.849 25.195ZM134.849 24.145C135.359 24.145 135.817 24.0125 136.222 23.7475C136.632 23.4775 136.954 23.1225 137.189 22.6825C137.429 22.2425 137.549 21.765 137.549 21.25C137.549 20.725 137.429 20.2425 137.189 19.8025C136.949 19.3575 136.624 19.0025 136.214 18.7375C135.809 18.4725 135.354 18.34 134.849 18.34C134.339 18.34 133.879 18.475 133.469 18.745C133.064 19.01 132.742 19.3625 132.502 19.8025C132.267 20.2425 132.149 20.725 132.149 21.25C132.149 21.79 132.272 22.28 132.517 22.72C132.762 23.155 133.089 23.5025 133.499 23.7625C133.909 24.0175 134.359 24.145 134.849 24.145ZM138.071 28.75V27.7C138.446 27.7 138.781 27.6175 139.076 27.4525C139.371 27.2875 139.604 27.06 139.774 26.77C139.944 26.485 140.029 26.165 140.029 25.81V17.5H141.079V25.81C141.079 26.35 140.946 26.8425 140.681 27.2875C140.421 27.7325 140.064 28.0875 139.609 28.3525C139.159 28.6175 138.646 28.75 138.071 28.75ZM140.561 16.1875C140.391 16.1875 140.246 16.1325 140.126 16.0225C140.011 15.9075 139.954 15.765 139.954 15.595C139.954 15.425 140.011 15.285 140.126 15.175C140.246 15.06 140.391 15.0025 140.561 15.0025C140.726 15.0025 140.866 15.06 140.981 15.175C141.101 15.285 141.161 15.425 141.161 15.595C141.161 15.765 141.104 15.9075 140.989 16.0225C140.874 16.1325 140.731 16.1875 140.561 16.1875ZM145.884 25.195C145.194 25.195 144.564 25.0175 143.994 24.6625C143.429 24.3075 142.976 23.8325 142.636 23.2375C142.301 22.6375 142.134 21.975 142.134 21.25C142.134 20.7 142.231 20.1875 142.426 19.7125C142.621 19.2325 142.889 18.8125 143.229 18.4525C143.574 18.0875 143.974 17.8025 144.429 17.5975C144.884 17.3925 145.369 17.29 145.884 17.29C146.439 17.29 146.949 17.4 147.414 17.62C147.884 17.84 148.286 18.1475 148.621 18.5425C148.961 18.9375 149.216 19.4 149.386 19.93C149.561 20.46 149.634 21.0325 149.604 21.6475H143.244C143.304 22.1225 143.454 22.5475 143.694 22.9225C143.939 23.2975 144.249 23.595 144.624 23.815C145.004 24.03 145.424 24.14 145.884 24.145C146.384 24.145 146.834 24.015 147.234 23.755C147.639 23.495 147.964 23.1375 148.209 22.6825L149.274 22.93C148.974 23.595 148.521 24.14 147.916 24.565C147.311 24.985 146.634 25.195 145.884 25.195ZM143.214 20.8H148.546C148.511 20.335 148.369 19.91 148.119 19.525C147.874 19.135 147.556 18.825 147.166 18.595C146.776 18.36 146.349 18.2425 145.884 18.2425C145.419 18.2425 144.994 18.3575 144.609 18.5875C144.224 18.8125 143.909 19.12 143.664 19.51C143.419 19.895 143.269 20.325 143.214 20.8ZM155.946 23.1175L156.884 23.6275C156.544 24.1025 156.111 24.4825 155.586 24.7675C155.066 25.0525 154.501 25.195 153.891 25.195C153.201 25.195 152.571 25.0175 152.001 24.6625C151.436 24.3075 150.984 23.8325 150.644 23.2375C150.309 22.6375 150.141 21.975 150.141 21.25C150.141 20.7 150.239 20.1875 150.434 19.7125C150.629 19.2325 150.896 18.8125 151.236 18.4525C151.581 18.0875 151.981 17.8025 152.436 17.5975C152.891 17.3925 153.376 17.29 153.891 17.29C154.501 17.29 155.066 17.4325 155.586 17.7175C156.111 18.0025 156.544 18.385 156.884 18.865L155.946 19.3675C155.686 19.0375 155.374 18.785 155.009 18.61C154.644 18.43 154.271 18.34 153.891 18.34C153.386 18.34 152.929 18.475 152.519 18.745C152.109 19.01 151.784 19.3625 151.544 19.8025C151.309 20.2425 151.191 20.725 151.191 21.25C151.191 21.775 151.311 22.2575 151.551 22.6975C151.796 23.1375 152.124 23.49 152.534 23.755C152.944 24.015 153.396 24.145 153.891 24.145C154.301 24.145 154.686 24.05 155.046 23.86C155.406 23.67 155.706 23.4225 155.946 23.1175ZM161.845 18.55H160.053L160.045 25H158.995L159.003 18.55H157.645V17.5H159.003L158.995 15.145H160.045L160.053 17.5H161.845V18.55ZM165.217 25.1425C164.807 25.1325 164.407 25.0575 164.017 24.9175C163.627 24.7775 163.287 24.5875 162.997 24.3475C162.707 24.1075 162.5 23.835 162.375 23.53L163.282 23.14C163.362 23.335 163.51 23.515 163.725 23.68C163.945 23.84 164.195 23.97 164.475 24.07C164.755 24.165 165.032 24.2125 165.307 24.2125C165.612 24.2125 165.897 24.1625 166.162 24.0625C166.427 23.9625 166.642 23.82 166.807 23.635C166.977 23.445 167.062 23.2225 167.062 22.9675C167.062 22.6925 166.972 22.4775 166.792 22.3225C166.612 22.1625 166.385 22.0375 166.11 21.9475C165.835 21.8525 165.552 21.7625 165.262 21.6775C164.732 21.5325 164.265 21.3725 163.86 21.1975C163.455 21.0225 163.137 20.8 162.907 20.53C162.682 20.255 162.57 19.9025 162.57 19.4725C162.57 19.0175 162.697 18.625 162.952 18.295C163.212 17.96 163.55 17.7025 163.965 17.5225C164.385 17.3375 164.832 17.245 165.307 17.245C165.917 17.245 166.472 17.3775 166.972 17.6425C167.477 17.9075 167.842 18.26 168.067 18.7L167.22 19.2025C167.13 18.9975 166.987 18.82 166.792 18.67C166.597 18.52 166.375 18.4025 166.125 18.3175C165.88 18.2325 165.63 18.1875 165.375 18.1825C165.055 18.1775 164.757 18.225 164.482 18.325C164.207 18.42 163.985 18.5625 163.815 18.7525C163.65 18.9425 163.567 19.175 163.567 19.45C163.567 19.725 163.65 19.935 163.815 20.08C163.98 20.22 164.202 20.335 164.482 20.425C164.767 20.51 165.087 20.61 165.442 20.725C165.897 20.87 166.325 21.035 166.725 21.22C167.125 21.405 167.447 21.635 167.692 21.91C167.937 22.185 168.057 22.5325 168.052 22.9525C168.052 23.4025 167.917 23.795 167.647 24.13C167.377 24.465 167.027 24.7225 166.597 24.9025C166.167 25.0775 165.707 25.1575 165.217 25.1425Z" fill="white"/>
</svg>
