<svg width="10" height="12" viewBox="0 0 10 12" fill="none" xmlns="http://www.w3.org/2000/svg">
<path d="M1.15646 11.7501C0.964596 11.7497 0.776125 11.6994 0.60959 11.6041C0.23459 11.3916 0.00146484 10.9791 0.00146484 10.5313V1.46881C0.00146484 1.01974 0.23459 0.608493 0.60959 0.395993C0.780091 0.298004 0.973783 0.247613 1.17042 0.250087C1.36706 0.252561 1.55942 0.307808 1.7274 0.410055L9.47271 5.04631C9.63413 5.14752 9.7672 5.28807 9.85944 5.45479C9.95168 5.6215 10.0001 5.8089 10.0001 5.99943C10.0001 6.18996 9.95168 6.37736 9.85944 6.54408C9.7672 6.71079 9.63413 6.85134 9.47271 6.95256L1.72615 11.5901C1.55424 11.694 1.35734 11.7493 1.15646 11.7501Z" fill="black"/>
</svg>
