<svg width="214" height="185" viewBox="0 0 214 185" fill="none" xmlns="http://www.w3.org/2000/svg">
<g clip-path="url(#clip0_54942_2518)">
<path d="M135.451 17.4794C142.002 37.447 136.008 33.8386 166.108 33.7973C198.521 33.7509 215.012 62.6131 203.932 89.5394C193.658 114.504 163.625 116.956 171.132 143.97C183.621 188.908 163.181 190.575 109.502 178.826C62.4307 168.522 31.3858 171.077 19.2528 149.86C7.12496 128.644 31.4632 110.839 23.6981 67.6669C16.9862 30.3438 51.1651 31.4227 75.5911 11.1556C99.9707 -9.07528 130.174 1.40411 135.451 17.4846V17.4794Z" fill="url(#paint0_linear_54942_2518)"/>
<path d="M119.884 33.1157H62.3687V76.1277" stroke="url(#paint1_linear_54942_2518)" stroke-miterlimit="10" stroke-linecap="round" stroke-dasharray="7 7"/>
<path d="M150.764 44.4058V46.2126" stroke="url(#paint2_linear_54942_2518)" stroke-miterlimit="10" stroke-linecap="round"/>
<path d="M150.764 49.9761V108.32" stroke="url(#paint3_linear_54942_2518)" stroke-miterlimit="10" stroke-linecap="round" stroke-dasharray="7.29 7.29"/>
<path d="M150.764 110.199V112.006" stroke="url(#paint4_linear_54942_2518)" stroke-miterlimit="10" stroke-linecap="round"/>
<path d="M158.457 122.17C158.457 122.17 154.414 100.427 169.474 92.1103C184.478 83.8301 190.157 86.0756 192.651 86.3596C195.145 86.6435 189.558 89.4776 185.893 95.7497C182.232 102.022 183.957 108.113 173.212 113.214C162.468 118.309 160.548 127.776 160.548 127.776L158.446 122.17H158.457Z" fill="#9F2141"/>
<path d="M165.453 121.556C165.453 121.556 163.573 97.1489 184.963 90.2676L165.453 121.556Z" fill="#9F2141"/>
<path d="M165.453 121.556C165.453 121.556 163.573 97.1489 184.963 90.2676" stroke="white" stroke-miterlimit="10" stroke-linecap="round"/>
<path d="M181.38 104.252C181.38 104.252 183.502 92.5801 190.875 92.9983C198.248 93.4164 200.364 95.9976 201.283 96.5654C202.202 97.1333 199.507 97.2158 196.926 98.9865C194.344 100.762 193.9 103.452 188.779 103.467C183.657 103.483 181.168 106.823 181.168 106.823L181.38 104.252Z" fill="#9E2041"/>
<path d="M181.174 106.823C181.174 106.823 185.573 95.2333 196.864 96.6943L181.174 106.823Z" fill="#9E2041"/>
<path d="M181.174 106.823C181.174 106.823 185.573 95.2333 196.864 96.6943" stroke="white" stroke-miterlimit="10" stroke-linecap="round"/>
<path d="M184.669 133.961C184.669 133.961 185.784 115.738 197.122 115.036C208.46 114.334 212.167 117.885 213.68 118.587C215.192 119.289 211.083 119.904 207.463 123.084C203.844 126.264 203.658 130.461 195.831 131.416C188.004 132.376 184.819 137.93 184.819 137.93L184.669 133.966V133.961Z" fill="url(#paint5_linear_54942_2518)"/>
<path d="M184.813 137.925C184.813 137.925 189.424 119.419 206.937 119.589" stroke="white" stroke-miterlimit="10" stroke-linecap="round"/>
<path d="M182.408 137.528C182.408 137.528 188.03 127.08 194.912 129.759C201.795 132.433 203.013 135.54 203.71 136.366C204.412 137.192 201.82 136.434 198.816 137.321C195.816 138.209 194.561 140.636 189.682 139.066C184.803 137.497 181.411 139.908 181.411 139.908L182.402 137.528H182.408Z" fill="#9E2040"/>
<path d="M181.411 139.908C181.411 139.908 189.176 130.244 199.461 135.117L181.411 139.908Z" fill="#9E2040"/>
<path d="M181.411 139.908C181.411 139.908 189.176 130.244 199.461 135.117" stroke="white" stroke-miterlimit="10" stroke-linecap="round"/>
<path d="M30.3374 131.72C30.3374 131.72 36.2542 108.681 22.4794 103.271C8.70456 97.8559 2.68453 100.778 0.531574 101.046C-1.62138 101.309 3.22665 103.715 6.43801 109.104C9.64938 114.494 8.20375 119.77 17.5178 124.09C26.8369 128.411 28.5613 136.578 28.5613 136.578L30.3322 131.72H30.3374Z" fill="url(#paint6_linear_54942_2518)"/>
<path d="M28.5664 136.573C28.5664 136.573 30.2598 111.779 8.48242 104.98" stroke="white" stroke-miterlimit="10" stroke-linecap="round"/>
<path d="M33.7655 157.217C33.7655 157.217 32.6348 138.715 21.1213 138.003C9.60791 137.29 5.84926 140.899 4.31586 141.606C2.78246 142.318 6.95414 142.943 10.625 146.169C14.2959 149.396 14.4869 153.655 22.4327 154.63C30.3785 155.601 33.6157 161.243 33.6157 161.243L33.7655 157.217Z" fill="url(#paint7_linear_54942_2518)"/>
<path d="M33.6157 161.243C33.6157 161.243 28.9328 142.453 11.1567 142.628" stroke="white" stroke-miterlimit="10" stroke-linecap="round"/>
<path d="M36.0632 160.841C36.0632 160.841 30.3529 150.237 23.3674 152.953C16.3819 155.668 15.148 158.822 14.4355 159.658C13.723 160.495 16.3561 159.726 19.4023 160.629C22.4484 161.532 23.7237 163.995 28.675 162.4C33.6263 160.81 37.0751 163.251 37.0751 163.251L36.0683 160.835L36.0632 160.841Z" fill="url(#paint8_linear_54942_2518)"/>
<path d="M37.07 163.257C37.07 163.257 29.1861 153.448 18.7466 158.394" stroke="white" stroke-miterlimit="10" stroke-linecap="round"/>
<path d="M89.9543 72.1528H30.2135C28.6367 72.1528 27.3584 73.4309 27.3584 75.0076V179.848C27.3584 181.425 28.6367 182.703 30.2135 182.703H89.9543C91.5311 182.703 92.8094 181.425 92.8094 179.848V75.0076C92.8094 73.4309 91.5311 72.1528 89.9543 72.1528Z" fill="url(#paint9_linear_54942_2518)"/>
<path d="M185.485 104.546H102.48C100.917 104.546 99.6504 105.812 99.6504 107.375V168.873C99.6504 170.435 100.917 171.702 102.48 171.702H185.485C187.047 171.702 188.314 170.435 188.314 168.873V107.375C188.314 105.812 187.047 104.546 185.485 104.546Z" fill="url(#paint10_linear_54942_2518)"/>
<path d="M99.6502 162.286H188.314V168.878C188.314 170.437 187.049 171.707 185.485 171.707H102.474C100.915 171.707 99.645 170.442 99.645 168.878V162.286H99.6502Z" fill="url(#paint11_linear_54942_2518)"/>
<path d="M152.942 176.363V171.702H134.717V176.363C134.717 178.531 133.514 180.524 131.593 181.536C130.891 181.902 131.154 182.966 131.944 182.966H155.71C156.499 182.966 156.763 181.907 156.061 181.536C154.14 180.524 152.937 178.531 152.937 176.363H152.942Z" fill="url(#paint12_linear_54942_2518)"/>
<path d="M162.979 29.1306C161.761 29.1306 160.615 29.4455 159.593 29.9875C159.278 25.8164 156.02 22.5332 152.039 22.5332C151.621 22.5332 151.213 22.5797 150.816 22.6468C149.458 18.1505 145.518 14.8931 140.866 14.8931C136.215 14.8931 132.249 18.1659 130.902 22.6778C130.437 22.5797 129.957 22.5281 129.461 22.5281C125.543 22.5281 122.321 25.708 121.918 29.7862C120.994 29.3629 119.982 29.1254 118.914 29.1254C114.706 29.1254 111.293 32.7751 111.293 37.2818C111.293 41.7885 114.706 45.4382 118.914 45.4382H162.979C167.187 45.4382 170.6 41.7885 170.6 37.2818C170.6 32.7751 167.187 29.1254 162.979 29.1254V29.1306Z" fill="url(#paint13_linear_54942_2518)"/>
<path d="M139.767 30.6123L136.55 26.8851C136.22 26.5031 135.631 26.5031 135.301 26.8851L132.084 30.6123C131.625 31.1492 132.002 31.9751 132.709 31.9751H133.344C133.494 31.9751 133.618 32.099 133.618 32.2487V39.6875C133.618 40.1418 133.989 40.5135 134.444 40.5135H137.407C137.862 40.5135 138.233 40.1418 138.233 39.6875V32.2487C138.233 32.099 138.357 31.9751 138.507 31.9751H139.142C139.849 31.9751 140.226 31.144 139.767 30.6123Z" fill="white"/>
<path d="M142.121 36.0582L145.337 39.7853C145.668 40.1673 146.256 40.1673 146.587 39.7853L149.803 36.0582C150.263 35.5213 149.886 34.6953 149.179 34.6953H148.657C148.44 34.6953 148.27 34.5198 148.27 34.3082V26.9881C148.27 26.5338 147.898 26.1621 147.444 26.1621H144.48C144.026 26.1621 143.654 26.5338 143.654 26.9881V34.4269C143.654 34.5766 143.53 34.7005 143.381 34.7005H142.746C142.038 34.7005 141.661 35.5316 142.121 36.0633V36.0582Z" fill="white"/>
<path d="M121.304 68.2452C121.304 67.7857 120.932 67.4141 120.473 67.4141H108.371C107.911 67.4141 107.54 67.7857 107.54 68.2452V90.7423C107.54 91.2018 107.911 91.5735 108.371 91.5735H135.198C135.657 91.5735 136.029 91.2018 136.029 90.7423V69.9074C136.029 69.448 135.657 69.0763 135.198 69.0763H122.135C121.676 69.0763 121.304 68.7046 121.304 68.2452Z" fill="url(#paint14_linear_54942_2518)"/>
<path d="M134.749 70.6455H108.743V91.5785H134.749V70.6455Z" fill="url(#paint15_linear_54942_2518)"/>
<path d="M121.01 73.3559C121.01 74.0632 120.437 74.6413 119.724 74.6413H108.825C108.118 74.6413 107.54 75.2143 107.54 75.9267V90.2985C107.54 91.0057 108.113 91.5839 108.825 91.5839H134.748C135.456 91.5839 136.034 91.0109 136.034 90.2985V73.3611C136.034 72.6539 135.461 72.0757 134.748 72.0757H122.29C121.583 72.0757 121.005 72.6487 121.005 73.3611L121.01 73.3559Z" fill="url(#paint16_linear_54942_2518)"/>
<path d="M87.7912 77.9502H32.4286C31.9125 77.9502 31.4941 78.3685 31.4941 78.8846V100.494C31.4941 101.01 31.9125 101.428 32.4286 101.428H87.7912C88.3073 101.428 88.7257 101.01 88.7257 100.494V78.8846C88.7257 78.3685 88.3073 77.9502 87.7912 77.9502Z" fill="url(#paint17_linear_54942_2518)"/>
<path d="M37.9016 80.0151H35.9241C35.4736 80.0151 35.1084 80.3803 35.1084 80.8308V98.4496C35.1084 98.9 35.4736 99.2652 35.9241 99.2652H37.9016C38.3521 99.2652 38.7173 98.9 38.7173 98.4496V80.8308C38.7173 80.3803 38.3521 80.0151 37.9016 80.0151Z" fill="url(#paint18_linear_54942_2518)"/>
<path d="M43.0749 80.0151H41.0975C40.647 80.0151 40.2817 80.3803 40.2817 80.8308V98.4496C40.2817 98.9 40.647 99.2652 41.0975 99.2652H43.0749C43.5254 99.2652 43.8907 98.9 43.8907 98.4496V80.8308C43.8907 80.3803 43.5254 80.0151 43.0749 80.0151Z" fill="url(#paint19_linear_54942_2518)"/>
<path d="M48.2531 80.0151H46.2757C45.8252 80.0151 45.46 80.3803 45.46 80.8308V98.4496C45.46 98.9 45.8252 99.2652 46.2757 99.2652H48.2531C48.7037 99.2652 49.0689 98.9 49.0689 98.4496V80.8308C49.0689 80.3803 48.7037 80.0151 48.2531 80.0151Z" fill="url(#paint20_linear_54942_2518)"/>
<ellipse cx="82.8861" cy="89.5651" rx="1.80704" ry="1.80679" fill="url(#paint21_linear_54942_2518)"/>
<ellipse cx="76.7475" cy="89.5651" rx="1.80704" ry="1.80679" fill="url(#paint22_linear_54942_2518)"/>
<ellipse cx="70.6811" cy="89.5651" rx="1.80704" ry="1.80679" fill="url(#paint23_linear_54942_2518)"/>
<path d="M53.3127 80.0151H51.3353C50.8848 80.0151 50.5195 80.3803 50.5195 80.8308V98.4496C50.5195 98.9 50.8848 99.2652 51.3353 99.2652H53.3127C53.7632 99.2652 54.1284 98.9 54.1284 98.4496V80.8308C54.1284 80.3803 53.7632 80.0151 53.3127 80.0151Z" fill="url(#paint24_linear_54942_2518)"/>
<path d="M87.7912 103.762H32.4286C31.9125 103.762 31.4941 104.18 31.4941 104.696V126.305C31.4941 126.821 31.9125 127.24 32.4286 127.24H87.7912C88.3073 127.24 88.7257 126.821 88.7257 126.305V104.696C88.7257 104.18 88.3073 103.762 87.7912 103.762Z" fill="url(#paint25_linear_54942_2518)"/>
<path d="M37.9016 105.827H35.9241C35.4736 105.827 35.1084 106.192 35.1084 106.642V124.261C35.1084 124.712 35.4736 125.077 35.9241 125.077H37.9016C38.3521 125.077 38.7173 124.712 38.7173 124.261V106.642C38.7173 106.192 38.3521 105.827 37.9016 105.827Z" fill="url(#paint26_linear_54942_2518)"/>
<path d="M43.0749 105.827H41.0975C40.647 105.827 40.2817 106.192 40.2817 106.642V124.261C40.2817 124.712 40.647 125.077 41.0975 125.077H43.0749C43.5254 125.077 43.8907 124.712 43.8907 124.261V106.642C43.8907 106.192 43.5254 105.827 43.0749 105.827Z" fill="url(#paint27_linear_54942_2518)"/>
<path d="M48.2531 105.827H46.2757C45.8252 105.827 45.46 106.192 45.46 106.642V124.261C45.46 124.712 45.8252 125.077 46.2757 125.077H48.2531C48.7037 125.077 49.0689 124.712 49.0689 124.261V106.642C49.0689 106.192 48.7037 105.827 48.2531 105.827Z" fill="url(#paint28_linear_54942_2518)"/>
<ellipse cx="82.8861" cy="115.377" rx="1.80704" ry="1.80679" fill="url(#paint29_linear_54942_2518)"/>
<ellipse cx="76.7475" cy="115.377" rx="1.80704" ry="1.80679" fill="url(#paint30_linear_54942_2518)"/>
<ellipse cx="70.6811" cy="115.377" rx="1.80704" ry="1.80679" fill="url(#paint31_linear_54942_2518)"/>
<path d="M53.3127 105.827H51.3353C50.8848 105.827 50.5195 106.192 50.5195 106.642V124.261C50.5195 124.712 50.8848 125.077 51.3353 125.077H53.3127C53.7632 125.077 54.1284 124.712 54.1284 124.261V106.642C54.1284 106.192 53.7632 105.827 53.3127 105.827Z" fill="url(#paint32_linear_54942_2518)"/>
<path d="M87.7912 129.573H32.4286C31.9125 129.573 31.4941 129.991 31.4941 130.507V152.116C31.4941 152.632 31.9125 153.051 32.4286 153.051H87.7912C88.3073 153.051 88.7257 152.632 88.7257 152.116V130.507C88.7257 129.991 88.3073 129.573 87.7912 129.573Z" fill="url(#paint33_linear_54942_2518)"/>
<path d="M37.9016 131.638H35.9241C35.4736 131.638 35.1084 132.003 35.1084 132.453V150.072C35.1084 150.523 35.4736 150.888 35.9241 150.888H37.9016C38.3521 150.888 38.7173 150.523 38.7173 150.072V132.453C38.7173 132.003 38.3521 131.638 37.9016 131.638Z" fill="url(#paint34_linear_54942_2518)"/>
<path d="M43.0749 131.638H41.0975C40.647 131.638 40.2817 132.003 40.2817 132.453V150.072C40.2817 150.523 40.647 150.888 41.0975 150.888H43.0749C43.5254 150.888 43.8907 150.523 43.8907 150.072V132.453C43.8907 132.003 43.5254 131.638 43.0749 131.638Z" fill="url(#paint35_linear_54942_2518)"/>
<path d="M48.2531 131.638H46.2757C45.8252 131.638 45.46 132.003 45.46 132.453V150.072C45.46 150.523 45.8252 150.888 46.2757 150.888H48.2531C48.7037 150.888 49.0689 150.523 49.0689 150.072V132.453C49.0689 132.003 48.7037 131.638 48.2531 131.638Z" fill="url(#paint36_linear_54942_2518)"/>
<ellipse cx="82.8861" cy="141.188" rx="1.80704" ry="1.80679" fill="url(#paint37_linear_54942_2518)"/>
<ellipse cx="76.7475" cy="141.188" rx="1.80704" ry="1.80679" fill="url(#paint38_linear_54942_2518)"/>
<ellipse cx="70.6811" cy="141.188" rx="1.80704" ry="1.80679" fill="url(#paint39_linear_54942_2518)"/>
<path d="M53.3127 131.638H51.3353C50.8848 131.638 50.5195 132.003 50.5195 132.453V150.072C50.5195 150.523 50.8848 150.888 51.3353 150.888H53.3127C53.7632 150.888 54.1284 150.523 54.1284 150.072V132.453C54.1284 132.003 53.7632 131.638 53.3127 131.638Z" fill="url(#paint40_linear_54942_2518)"/>
<path d="M87.7912 155.384H32.4286C31.9125 155.384 31.4941 155.803 31.4941 156.319V177.928C31.4941 178.444 31.9125 178.862 32.4286 178.862H87.7912C88.3073 178.862 88.7257 178.444 88.7257 177.928V156.319C88.7257 155.803 88.3073 155.384 87.7912 155.384Z" fill="url(#paint41_linear_54942_2518)"/>
<path d="M37.9016 157.449H35.9241C35.4736 157.449 35.1084 157.814 35.1084 158.265V175.884C35.1084 176.334 35.4736 176.699 35.9241 176.699H37.9016C38.3521 176.699 38.7173 176.334 38.7173 175.884V158.265C38.7173 157.814 38.3521 157.449 37.9016 157.449Z" fill="url(#paint42_linear_54942_2518)"/>
<path d="M43.0749 157.449H41.0975C40.647 157.449 40.2817 157.814 40.2817 158.265V175.884C40.2817 176.334 40.647 176.699 41.0975 176.699H43.0749C43.5254 176.699 43.8907 176.334 43.8907 175.884V158.265C43.8907 157.814 43.5254 157.449 43.0749 157.449Z" fill="url(#paint43_linear_54942_2518)"/>
<path d="M48.2531 157.449H46.2757C45.8252 157.449 45.46 157.814 45.46 158.265V175.884C45.46 176.334 45.8252 176.699 46.2757 176.699H48.2531C48.7037 176.699 49.0689 176.334 49.0689 175.884V158.265C49.0689 157.814 48.7037 157.449 48.2531 157.449Z" fill="url(#paint44_linear_54942_2518)"/>
<ellipse cx="82.8861" cy="166.999" rx="1.80704" ry="1.80679" fill="url(#paint45_linear_54942_2518)"/>
<ellipse cx="76.7475" cy="166.999" rx="1.80704" ry="1.80679" fill="url(#paint46_linear_54942_2518)"/>
<ellipse cx="70.6811" cy="166.999" rx="1.80704" ry="1.80679" fill="url(#paint47_linear_54942_2518)"/>
<path d="M53.3127 157.449H51.3353C50.8848 157.449 50.5195 157.814 50.5195 158.265V175.884C50.5195 176.334 50.8848 176.699 51.3353 176.699H53.3127C53.7632 176.699 54.1284 176.334 54.1284 175.884V158.265C54.1284 157.814 53.7632 157.449 53.3127 157.449Z" fill="url(#paint48_linear_54942_2518)"/>
<rect x="102.743" y="109.956" width="82.6075" height="53.1713" rx="5" fill="#323335"/>
<path d="M200.855 138.767H198.764C200.36 138.767 201.655 139.98 201.655 141.477V164.661C201.655 166.158 200.36 167.371 198.764 167.371H200.855C202.451 167.371 203.746 166.158 203.746 164.661V141.477C203.746 139.98 202.451 138.767 200.855 138.767Z" fill="#7EBDE0"/>
<path d="M199.755 138.767H171.503C170.146 138.767 169.046 139.867 169.046 141.224V164.913C169.046 166.271 170.146 167.371 171.503 167.371H199.755C201.113 167.371 202.213 166.271 202.213 164.913V141.224C202.213 139.867 201.113 138.767 199.755 138.767Z" fill="url(#paint49_linear_54942_2518)"/>
<path d="M177.095 158.543L183.502 150.893C183.683 150.676 184.013 150.676 184.194 150.893L187.844 155.255C188.03 155.482 188.381 155.466 188.557 155.229L189.739 153.598C189.925 153.345 190.307 153.35 190.482 153.618L193.849 158.786C194.045 159.085 193.828 159.488 193.467 159.483L177.436 159.286C177.054 159.286 176.852 158.837 177.095 158.548V158.543Z" fill="url(#paint50_linear_54942_2518)"/>
<path d="M190.483 150.098C191.435 150.098 192.207 149.326 192.207 148.374C192.207 147.421 191.435 146.649 190.483 146.649C189.53 146.649 188.758 147.421 188.758 148.374C188.758 149.326 189.53 150.098 190.483 150.098Z" fill="url(#paint51_linear_54942_2518)"/>
<path d="M116.998 118.298H114.907C116.503 118.298 117.798 119.594 117.798 121.189V145.896C117.798 147.491 116.503 148.787 114.907 148.787H116.998C118.594 148.787 119.889 147.491 119.889 145.896V121.189C119.889 119.594 118.594 118.298 116.998 118.298Z" fill="#AF7282"/>
<path d="M115.898 118.298H87.6465C86.2893 118.298 85.189 119.398 85.189 120.756V146.324C85.189 147.681 86.2893 148.781 87.6465 148.781H115.898C117.256 148.781 118.356 147.681 118.356 146.324V120.756C118.356 119.398 117.256 118.298 115.898 118.298Z" fill="url(#paint52_linear_54942_2518)"/>
<path d="M102.963 141.18C107.18 140.519 110.062 136.564 109.401 132.348C108.739 128.131 104.784 125.25 100.567 125.912C96.3497 126.573 93.4677 130.528 94.1296 134.744C94.7914 138.961 98.7465 141.842 102.963 141.18Z" stroke="url(#paint53_linear_54942_2518)" stroke-miterlimit="10" stroke-linecap="round"/>
<path d="M100.26 131.798V135.618C100.26 136.015 100.699 136.263 101.039 136.051L104.106 134.141C104.426 133.94 104.426 133.475 104.106 133.279L101.039 131.369C100.699 131.158 100.26 131.4 100.26 131.803V131.798Z" fill="url(#paint54_linear_54942_2518)"/>
<path d="M191.015 94.3818H189.378C190.627 94.3818 191.639 95.2439 191.639 96.3074V112.78C191.639 113.844 190.627 114.706 189.378 114.706H191.015C192.264 114.706 193.276 113.844 193.276 112.78V96.3074C193.276 95.2439 192.264 94.3818 191.015 94.3818Z" fill="#7EBDE0"/>
<path d="M189.626 94.3818H168.566C167.209 94.3818 166.108 95.482 166.108 96.8391V112.254C166.108 113.611 167.209 114.711 168.566 114.711H189.626C190.983 114.711 192.083 113.611 192.083 112.254V96.8391C192.083 95.482 190.983 94.3818 189.626 94.3818Z" fill="url(#paint55_linear_54942_2518)"/>
<path d="M177.56 108.557C177.529 108.557 177.503 108.557 177.472 108.542C177.343 108.495 177.276 108.346 177.328 108.217L180.141 100.705C180.188 100.576 180.332 100.509 180.467 100.561C180.596 100.607 180.663 100.757 180.611 100.886L177.797 108.397C177.761 108.5 177.663 108.562 177.56 108.562V108.557Z" fill="url(#paint56_linear_54942_2518)"/>
<path d="M176.181 106.637C176.15 106.637 176.114 106.632 176.083 106.617L171.757 104.82C171.643 104.774 171.638 104.608 171.757 104.557L176.026 102.714C176.155 102.657 176.3 102.714 176.357 102.843C176.414 102.972 176.357 103.117 176.228 103.173L173.052 104.546C172.939 104.598 172.939 104.758 173.052 104.81L176.284 106.152C176.414 106.204 176.476 106.353 176.419 106.482C176.377 106.58 176.284 106.637 176.186 106.637H176.181Z" fill="url(#paint57_linear_54942_2518)"/>
<path d="M181.494 106.637C181.525 106.637 181.561 106.632 181.592 106.617L185.919 104.82C186.037 104.774 186.037 104.608 185.919 104.557L181.649 102.714C181.52 102.657 181.375 102.714 181.318 102.843C181.262 102.972 181.318 103.117 181.448 103.173L184.623 104.546C184.736 104.598 184.736 104.758 184.623 104.81L181.391 106.152C181.262 106.204 181.2 106.353 181.256 106.482C181.298 106.58 181.391 106.637 181.489 106.637H181.494Z" fill="url(#paint58_linear_54942_2518)"/>
</g>
<defs>
<linearGradient id="paint0_linear_54942_2518" x1="19.7802" y1="76.7014" x2="203.164" y2="103.948" gradientUnits="userSpaceOnUse">
<stop stop-color="#9E2041"/>
<stop offset="1" stop-color="#EEEAED"/>
</linearGradient>
<linearGradient id="paint1_linear_54942_2518" x1="62.1105" y1="54.6217" x2="120.142" y2="54.6217" gradientUnits="userSpaceOnUse">
<stop stop-color="#9E2041"/>
</linearGradient>
<linearGradient id="paint2_linear_54942_2518" x1="-nan" y1="-nan" x2="-nan" y2="-nan" gradientUnits="userSpaceOnUse">
<stop stop-color="#9F2142"/>
</linearGradient>
<linearGradient id="paint3_linear_54942_2518" x1="-nan" y1="-nan" x2="-nan" y2="-nan" gradientUnits="userSpaceOnUse">
<stop stop-color="#9F2142"/>
</linearGradient>
<linearGradient id="paint4_linear_54942_2518" x1="-nan" y1="-nan" x2="-nan" y2="-nan" gradientUnits="userSpaceOnUse">
<stop stop-color="#9F2142"/>
</linearGradient>
<linearGradient id="paint5_linear_54942_2518" x1="180.564" y1="136.526" x2="205.235" y2="116.246" gradientUnits="userSpaceOnUse">
<stop offset="0.03" stop-color="#004D8A"/>
<stop offset="1" stop-color="#9D1F41"/>
</linearGradient>
<linearGradient id="paint6_linear_54942_2518" x1="12.045" y1="106.012" x2="47.0246" y2="140.315" gradientUnits="userSpaceOnUse">
<stop stop-color="#9C2041"/>
<stop offset="0.98" stop-color="#004D8A"/>
</linearGradient>
<linearGradient id="paint7_linear_54942_2518" x1="16.1907" y1="141.766" x2="32.2496" y2="166.841" gradientUnits="userSpaceOnUse">
<stop stop-color="#9D2041"/>
<stop offset="0.98" stop-color="#004D8A"/>
</linearGradient>
<linearGradient id="paint8_linear_54942_2518" x1="16.2115" y1="154.001" x2="42.1644" y2="166.661" gradientUnits="userSpaceOnUse">
<stop stop-color="#9E2041"/>
<stop offset="0.98" stop-color="#004D8A"/>
</linearGradient>
<linearGradient id="paint9_linear_54942_2518" x1="27.3584" y1="127.425" x2="92.8042" y2="127.425" gradientUnits="userSpaceOnUse">
<stop stop-color="#9E2041"/>
<stop offset="1" stop-color="#A22240"/>
</linearGradient>
<linearGradient id="paint10_linear_54942_2518" x1="99.6504" y1="138.126" x2="188.314" y2="138.126" gradientUnits="userSpaceOnUse">
<stop stop-color="#050D12"/>
<stop offset="1" stop-color="#043053"/>
</linearGradient>
<linearGradient id="paint11_linear_54942_2518" x1="99.6502" y1="166.994" x2="188.314" y2="166.994" gradientUnits="userSpaceOnUse">
<stop/>
<stop offset="0.87" stop-color="#05263A"/>
</linearGradient>
<linearGradient id="paint12_linear_54942_2518" x1="131.185" y1="177.334" x2="156.468" y2="177.334" gradientUnits="userSpaceOnUse">
<stop stop-color="#010305"/>
<stop offset="1" stop-color="#0A1E2E"/>
</linearGradient>
<linearGradient id="paint13_linear_54942_2518" x1="111.293" y1="30.1734" x2="170.6" y2="30.1734" gradientUnits="userSpaceOnUse">
<stop stop-color="#9E2041"/>
<stop offset="1" stop-color="#640852"/>
</linearGradient>
<linearGradient id="paint14_linear_54942_2518" x1="107.54" y1="79.4938" x2="136.029" y2="79.4938" gradientUnits="userSpaceOnUse">
<stop offset="1" stop-color="#620753"/>
</linearGradient>
<linearGradient id="paint15_linear_54942_2518" x1="108.743" y1="81.1094" x2="134.749" y2="81.1094" gradientUnits="userSpaceOnUse">
<stop offset="0.06" stop-color="white"/>
<stop offset="1" stop-color="#DFE9ED"/>
</linearGradient>
<linearGradient id="paint16_linear_54942_2518" x1="-1.91913e-05" y1="81.8272" x2="0.516278" y2="81.8272" gradientUnits="userSpaceOnUse">
<stop stop-color="#941334"/>
<stop offset="1" stop-color="#7A142E"/>
</linearGradient>
<linearGradient id="paint17_linear_54942_2518" x1="31.4941" y1="89.6892" x2="88.7205" y2="89.6892" gradientUnits="userSpaceOnUse">
<stop stop-color="#9E2041"/>
<stop offset="0.87" stop-color="#620753"/>
</linearGradient>
<linearGradient id="paint18_linear_54942_2518" x1="1.15671" y1="89.6428" x2="1.673" y2="89.6428" gradientUnits="userSpaceOnUse">
<stop offset="0.06" stop-color="white"/>
<stop offset="1" stop-color="#DFE9ED"/>
</linearGradient>
<linearGradient id="paint19_linear_54942_2518" x1="40.2817" y1="89.6428" x2="43.8958" y2="89.6428" gradientUnits="userSpaceOnUse">
<stop offset="0.06" stop-color="white"/>
<stop offset="1" stop-color="#DFE9ED"/>
</linearGradient>
<linearGradient id="paint20_linear_54942_2518" x1="45.46" y1="89.6428" x2="49.074" y2="89.6428" gradientUnits="userSpaceOnUse">
<stop offset="0.06" stop-color="white"/>
<stop offset="1" stop-color="#DFE9ED"/>
</linearGradient>
<linearGradient id="paint21_linear_54942_2518" x1="81.0791" y1="89.5651" x2="84.6932" y2="89.5651" gradientUnits="userSpaceOnUse">
<stop offset="0.06" stop-color="white"/>
<stop offset="1" stop-color="#DFE9ED"/>
</linearGradient>
<linearGradient id="paint22_linear_54942_2518" x1="74.9404" y1="89.5651" x2="78.5545" y2="89.5651" gradientUnits="userSpaceOnUse">
<stop offset="0.06" stop-color="white"/>
<stop offset="1" stop-color="#DFE9ED"/>
</linearGradient>
<linearGradient id="paint23_linear_54942_2518" x1="68.874" y1="89.5651" x2="72.4881" y2="89.5651" gradientUnits="userSpaceOnUse">
<stop offset="0.06" stop-color="white"/>
<stop offset="1" stop-color="#DFE9ED"/>
</linearGradient>
<linearGradient id="paint24_linear_54942_2518" x1="50.5195" y1="89.6376" x2="54.1284" y2="89.6376" gradientUnits="userSpaceOnUse">
<stop offset="0.06" stop-color="white"/>
<stop offset="1" stop-color="#DFE9ED"/>
</linearGradient>
<linearGradient id="paint25_linear_54942_2518" x1="31.4941" y1="115.501" x2="88.7205" y2="115.501" gradientUnits="userSpaceOnUse">
<stop stop-color="#9E2041"/>
<stop offset="0.87" stop-color="#620753"/>
</linearGradient>
<linearGradient id="paint26_linear_54942_2518" x1="1.15671" y1="115.454" x2="1.673" y2="115.454" gradientUnits="userSpaceOnUse">
<stop offset="0.06" stop-color="white"/>
<stop offset="1" stop-color="#DFE9ED"/>
</linearGradient>
<linearGradient id="paint27_linear_54942_2518" x1="40.2817" y1="115.454" x2="43.8958" y2="115.454" gradientUnits="userSpaceOnUse">
<stop offset="0.06" stop-color="white"/>
<stop offset="1" stop-color="#DFE9ED"/>
</linearGradient>
<linearGradient id="paint28_linear_54942_2518" x1="45.46" y1="115.454" x2="49.074" y2="115.454" gradientUnits="userSpaceOnUse">
<stop offset="0.06" stop-color="white"/>
<stop offset="1" stop-color="#DFE9ED"/>
</linearGradient>
<linearGradient id="paint29_linear_54942_2518" x1="81.0791" y1="115.377" x2="84.6932" y2="115.377" gradientUnits="userSpaceOnUse">
<stop offset="0.06" stop-color="white"/>
<stop offset="1" stop-color="#DFE9ED"/>
</linearGradient>
<linearGradient id="paint30_linear_54942_2518" x1="74.9404" y1="115.377" x2="78.5545" y2="115.377" gradientUnits="userSpaceOnUse">
<stop offset="0.06" stop-color="white"/>
<stop offset="1" stop-color="#DFE9ED"/>
</linearGradient>
<linearGradient id="paint31_linear_54942_2518" x1="68.874" y1="115.377" x2="72.4881" y2="115.377" gradientUnits="userSpaceOnUse">
<stop offset="0.06" stop-color="white"/>
<stop offset="1" stop-color="#DFE9ED"/>
</linearGradient>
<linearGradient id="paint32_linear_54942_2518" x1="50.5195" y1="115.449" x2="54.1284" y2="115.449" gradientUnits="userSpaceOnUse">
<stop offset="0.06" stop-color="white"/>
<stop offset="1" stop-color="#DFE9ED"/>
</linearGradient>
<linearGradient id="paint33_linear_54942_2518" x1="31.4941" y1="141.312" x2="88.7205" y2="141.312" gradientUnits="userSpaceOnUse">
<stop stop-color="#9E2041"/>
<stop offset="0.87" stop-color="#620753"/>
</linearGradient>
<linearGradient id="paint34_linear_54942_2518" x1="1.15671" y1="141.265" x2="1.673" y2="141.265" gradientUnits="userSpaceOnUse">
<stop offset="0.06" stop-color="white"/>
<stop offset="1" stop-color="#DFE9ED"/>
</linearGradient>
<linearGradient id="paint35_linear_54942_2518" x1="40.2817" y1="141.265" x2="43.8958" y2="141.265" gradientUnits="userSpaceOnUse">
<stop offset="0.06" stop-color="white"/>
<stop offset="1" stop-color="#DFE9ED"/>
</linearGradient>
<linearGradient id="paint36_linear_54942_2518" x1="45.46" y1="141.265" x2="49.074" y2="141.265" gradientUnits="userSpaceOnUse">
<stop offset="0.06" stop-color="white"/>
<stop offset="1" stop-color="#DFE9ED"/>
</linearGradient>
<linearGradient id="paint37_linear_54942_2518" x1="81.0791" y1="141.188" x2="84.6932" y2="141.188" gradientUnits="userSpaceOnUse">
<stop offset="0.06" stop-color="white"/>
<stop offset="1" stop-color="#DFE9ED"/>
</linearGradient>
<linearGradient id="paint38_linear_54942_2518" x1="74.9404" y1="141.188" x2="78.5545" y2="141.188" gradientUnits="userSpaceOnUse">
<stop offset="0.06" stop-color="white"/>
<stop offset="1" stop-color="#DFE9ED"/>
</linearGradient>
<linearGradient id="paint39_linear_54942_2518" x1="68.874" y1="141.188" x2="72.4881" y2="141.188" gradientUnits="userSpaceOnUse">
<stop offset="0.06" stop-color="white"/>
<stop offset="1" stop-color="#DFE9ED"/>
</linearGradient>
<linearGradient id="paint40_linear_54942_2518" x1="50.5195" y1="141.26" x2="54.1284" y2="141.26" gradientUnits="userSpaceOnUse">
<stop offset="0.06" stop-color="white"/>
<stop offset="1" stop-color="#DFE9ED"/>
</linearGradient>
<linearGradient id="paint41_linear_54942_2518" x1="31.4941" y1="167.123" x2="88.7205" y2="167.123" gradientUnits="userSpaceOnUse">
<stop stop-color="#9E2041"/>
<stop offset="0.87" stop-color="#620753"/>
</linearGradient>
<linearGradient id="paint42_linear_54942_2518" x1="1.15671" y1="167.077" x2="1.673" y2="167.077" gradientUnits="userSpaceOnUse">
<stop offset="0.06" stop-color="white"/>
<stop offset="1" stop-color="#DFE9ED"/>
</linearGradient>
<linearGradient id="paint43_linear_54942_2518" x1="40.2817" y1="167.077" x2="43.8958" y2="167.077" gradientUnits="userSpaceOnUse">
<stop offset="0.06" stop-color="white"/>
<stop offset="1" stop-color="#DFE9ED"/>
</linearGradient>
<linearGradient id="paint44_linear_54942_2518" x1="45.46" y1="167.077" x2="49.074" y2="167.077" gradientUnits="userSpaceOnUse">
<stop offset="0.06" stop-color="white"/>
<stop offset="1" stop-color="#DFE9ED"/>
</linearGradient>
<linearGradient id="paint45_linear_54942_2518" x1="81.0791" y1="166.999" x2="84.6932" y2="166.999" gradientUnits="userSpaceOnUse">
<stop offset="0.06" stop-color="white"/>
<stop offset="1" stop-color="#DFE9ED"/>
</linearGradient>
<linearGradient id="paint46_linear_54942_2518" x1="74.9404" y1="166.999" x2="78.5545" y2="166.999" gradientUnits="userSpaceOnUse">
<stop offset="0.06" stop-color="white"/>
<stop offset="1" stop-color="#DFE9ED"/>
</linearGradient>
<linearGradient id="paint47_linear_54942_2518" x1="68.874" y1="166.999" x2="72.4881" y2="166.999" gradientUnits="userSpaceOnUse">
<stop offset="0.06" stop-color="white"/>
<stop offset="1" stop-color="#DFE9ED"/>
</linearGradient>
<linearGradient id="paint48_linear_54942_2518" x1="50.5195" y1="167.072" x2="54.1284" y2="167.072" gradientUnits="userSpaceOnUse">
<stop offset="0.06" stop-color="white"/>
<stop offset="1" stop-color="#DFE9ED"/>
</linearGradient>
<linearGradient id="paint49_linear_54942_2518" x1="169.046" y1="153.071" x2="209.24" y2="153.071" gradientUnits="userSpaceOnUse">
<stop stop-color="#FAFFFF"/>
<stop offset="1" stop-color="#CAEBEF"/>
</linearGradient>
<linearGradient id="paint50_linear_54942_2518" x1="176.992" y1="155.105" x2="197.509" y2="155.105" gradientUnits="userSpaceOnUse">
<stop stop-color="#630752"/>
<stop offset="0.75" stop-color="#9F2041"/>
</linearGradient>
<linearGradient id="paint51_linear_54942_2518" x1="188.753" y1="148.374" x2="192.94" y2="148.374" gradientUnits="userSpaceOnUse">
<stop stop-color="#9E2041"/>
<stop offset="0.75" stop-color="#9E2040"/>
</linearGradient>
<linearGradient id="paint52_linear_54942_2518" x1="85.189" y1="133.537" x2="125.383" y2="133.537" gradientUnits="userSpaceOnUse">
<stop stop-color="#FAFFFF"/>
<stop offset="1" stop-color="#CAEBEF"/>
</linearGradient>
<linearGradient id="paint53_linear_54942_2518" x1="93.7911" y1="133.543" x2="109.76" y2="133.543" gradientUnits="userSpaceOnUse">
<stop stop-color="#9E2041"/>
</linearGradient>
<linearGradient id="paint54_linear_54942_2518" x1="100.26" y1="133.708" x2="105.211" y2="133.708" gradientUnits="userSpaceOnUse">
<stop stop-color="#640753"/>
<stop offset="0.75" stop-color="#9F2041"/>
</linearGradient>
<linearGradient id="paint55_linear_54942_2518" x1="166.108" y1="104.546" x2="197.582" y2="104.546" gradientUnits="userSpaceOnUse">
<stop stop-color="#FAFFFF"/>
<stop offset="1" stop-color="#CAEBEF"/>
</linearGradient>
<linearGradient id="paint56_linear_54942_2518" x1="177.307" y1="104.546" x2="180.627" y2="104.546" gradientUnits="userSpaceOnUse">
<stop stop-color="#0A91F2"/>
<stop offset="0.75" stop-color="#004D8A"/>
</linearGradient>
<linearGradient id="paint57_linear_54942_2518" x1="171.674" y1="104.665" x2="176.434" y2="104.665" gradientUnits="userSpaceOnUse">
<stop stop-color="#0A91F2"/>
<stop offset="0.75" stop-color="#004D8A"/>
</linearGradient>
<linearGradient id="paint58_linear_54942_2518" x1="186.012" y1="104.665" x2="181.246" y2="104.665" gradientUnits="userSpaceOnUse">
<stop stop-color="#0A91F2"/>
<stop offset="0.75" stop-color="#004D8A"/>
</linearGradient>
<clipPath id="clip0_54942_2518">
<rect width="214" height="185" fill="white"/>
</clipPath>
</defs>
</svg>
