<svg width="59" height="59" viewBox="0 0 59 59" fill="none" xmlns="http://www.w3.org/2000/svg">
<path d="M29.5 3.6875C15.2455 3.6875 3.6875 15.2455 3.6875 29.5C3.6875 43.7545 15.2455 55.3125 29.5 55.3125C43.7545 55.3125 55.3125 43.7545 55.3125 29.5C55.3125 15.2455 43.7545 3.6875 29.5 3.6875ZM40.1304 24.0667L29.8745 38.2405C29.8321 38.2994 29.7763 38.3474 29.7116 38.3805C29.647 38.4136 29.5755 38.4308 29.5029 38.4308C29.4303 38.4308 29.3587 38.4136 29.2941 38.3805C29.2295 38.3474 29.1737 38.2994 29.1313 38.2405L18.8754 24.0667C18.6564 23.7613 18.8754 23.335 19.2499 23.335H21.9521C22.5398 23.335 23.0987 23.6173 23.4444 24.0955L29.5 32.473L35.5613 24.0955C35.907 23.6173 36.4602 23.335 37.0536 23.335H39.7559C40.1304 23.335 40.3493 23.7613 40.1304 24.0667Z" fill="#AA253D"/>
</svg>
